<?xml version="1.0" encoding="utf-8" standalone="no"?>
<!DOCTYPE svg PUBLIC "-//W3C//DTD SVG 1.1//EN"
  "http://www.w3.org/Graphics/SVG/1.1/DTD/svg11.dtd">
<svg xmlns:xlink="http://www.w3.org/1999/xlink" width="829.725pt" height="514.737965pt" viewBox="0 0 829.725 514.737965" xmlns="http://www.w3.org/2000/svg" version="1.1">
 <metadata>
  <rdf:RDF xmlns:dc="http://purl.org/dc/elements/1.1/" xmlns:cc="http://creativecommons.org/ns#" xmlns:rdf="http://www.w3.org/1999/02/22-rdf-syntax-ns#">
   <cc:Work>
    <dc:type rdf:resource="http://purl.org/dc/dcmitype/StillImage"/>
    <dc:date>2025-12-30T16:03:59.829790</dc:date>
    <dc:format>image/svg+xml</dc:format>
    <dc:creator>
     <cc:Agent>
      <dc:title>Matplotlib v3.10.8, https://matplotlib.org/</dc:title>
     </cc:Agent>
    </dc:creator>
   </cc:Work>
  </rdf:RDF>
 </metadata>
 <defs>
  <style type="text/css">*{stroke-linejoin: round; stroke-linecap: butt}</style>
 </defs>
 <g id="figure_1">
  <g id="patch_1">
   <path d="M 0 514.737965 
L 829.725 514.737965 
L 829.725 0 
L 0 0 
z
" style="fill: #ffffff"/>
  </g>
  <g id="axes_1">
   <g id="patch_2">
    <path d="M 41.325 467.6575 
L 822.525 467.6575 
L 822.525 24.1375 
L 41.325 24.1375 
z
" style="fill: #ffffff"/>
   </g>
   <g id="patch_3">
    <path d="M 78.794934 439.536929 
L 79.151451 439.536929 
L 79.151451 430.181806 
L 78.794934 430.181806 
z
" clip-path="url(#pe5e460b42e)" style="fill: #ff0000"/>
   </g>
   <g id="patch_4">
    <path d="M 85.925274 435.004634 
L 86.281791 435.004634 
L 86.281791 420.884789 
L 85.925274 420.884789 
z
" clip-path="url(#pe5e460b42e)" style="fill: #ff0000"/>
   </g>
   <g id="patch_5">
    <path d="M 107.316292 444.998927 
L 107.672809 444.998927 
L 107.672809 438.316696 
L 107.316292 438.316696 
z
" clip-path="url(#pe5e460b42e)" style="fill: #ff0000"/>
   </g>
   <g id="patch_6">
    <path d="M 114.446632 439.478823 
L 114.803149 439.478823 
L 114.803149 433.610081 
L 114.446632 433.610081 
z
" clip-path="url(#pe5e460b42e)" style="fill: #ff0000"/>
   </g>
   <g id="patch_7">
    <path d="M 128.707311 447.4975 
L 129.063828 447.4975 
L 129.063828 441.047695 
L 128.707311 441.047695 
z
" clip-path="url(#pe5e460b42e)" style="fill: #ff0000"/>
   </g>
   <g id="patch_8">
    <path d="M 135.837651 444.94082 
L 136.194168 444.94082 
L 136.194168 440.524737 
L 135.837651 440.524737 
z
" clip-path="url(#pe5e460b42e)" style="fill: #ff0000"/>
   </g>
   <g id="patch_9">
    <path d="M 142.96799 444.243544 
L 143.324507 444.243544 
L 143.324507 431.924997 
L 142.96799 431.924997 
z
" clip-path="url(#pe5e460b42e)" style="fill: #ff0000"/>
   </g>
   <g id="patch_10">
    <path d="M 150.09833 435.004634 
L 150.454847 435.004634 
L 150.454847 424.894128 
L 150.09833 424.894128 
z
" clip-path="url(#pe5e460b42e)" style="fill: #ff0000"/>
   </g>
   <g id="patch_11">
    <path d="M 171.489348 421.872597 
L 171.845865 421.872597 
L 171.845865 417.398408 
L 171.489348 417.398408 
z
" clip-path="url(#pe5e460b42e)" style="fill: #ff0000"/>
   </g>
   <g id="patch_12">
    <path d="M 185.750027 422.62798 
L 186.106544 422.62798 
L 186.106544 416.352494 
L 185.750027 416.352494 
z
" clip-path="url(#pe5e460b42e)" style="fill: #ff0000"/>
   </g>
   <g id="patch_13">
    <path d="M 192.880367 423.209043 
L 193.236884 423.209043 
L 193.236884 417.340302 
L 192.880367 417.340302 
z
" clip-path="url(#pe5e460b42e)" style="fill: #ff0000"/>
   </g>
   <g id="patch_14">
    <path d="M 207.141046 430.937189 
L 207.497563 430.937189 
L 207.497563 423.673894 
L 207.141046 423.673894 
z
" clip-path="url(#pe5e460b42e)" style="fill: #ff0000"/>
   </g>
   <g id="patch_15">
    <path d="M 214.271386 426.172468 
L 214.627903 426.172468 
L 214.627903 420.826683 
L 214.271386 420.826683 
z
" clip-path="url(#pe5e460b42e)" style="fill: #ff0000"/>
   </g>
   <g id="patch_16">
    <path d="M 221.401725 425.707617 
L 221.758242 425.707617 
L 221.758242 420.187513 
L 221.401725 420.187513 
z
" clip-path="url(#pe5e460b42e)" style="fill: #ff0000"/>
   </g>
   <g id="patch_17">
    <path d="M 235.662404 433.319549 
L 236.018921 433.319549 
L 236.018921 423.732001 
L 235.662404 423.732001 
z
" clip-path="url(#pe5e460b42e)" style="fill: #ff0000"/>
   </g>
   <g id="patch_18">
    <path d="M 242.792744 426.172468 
L 243.149261 426.172468 
L 243.149261 418.270003 
L 242.792744 418.270003 
z
" clip-path="url(#pe5e460b42e)" style="fill: #ff0000"/>
   </g>
   <g id="patch_19">
    <path d="M 257.053423 422.279342 
L 257.40994 422.279342 
L 257.40994 417.68894 
L 257.053423 417.68894 
z
" clip-path="url(#pe5e460b42e)" style="fill: #ff0000"/>
   </g>
   <g id="patch_20">
    <path d="M 271.314102 421.814491 
L 271.670619 421.814491 
L 271.670619 418.676748 
L 271.314102 418.676748 
z
" clip-path="url(#pe5e460b42e)" style="fill: #ff0000"/>
   </g>
   <g id="patch_21">
    <path d="M 292.70512 430.937189 
L 293.061637 430.937189 
L 293.061637 424.196851 
L 292.70512 424.196851 
z
" clip-path="url(#pe5e460b42e)" style="fill: #ff0000"/>
   </g>
   <g id="patch_22">
    <path d="M 299.83546 428.438615 
L 300.191977 428.438615 
L 300.191977 423.26715 
L 299.83546 423.26715 
z
" clip-path="url(#pe5e460b42e)" style="fill: #ff0000"/>
   </g>
   <g id="patch_23">
    <path d="M 306.9658 427.450807 
L 307.322317 427.450807 
L 307.322317 422.046916 
L 306.9658 422.046916 
z
" clip-path="url(#pe5e460b42e)" style="fill: #ff0000"/>
   </g>
   <g id="patch_24">
    <path d="M 314.096139 424.313064 
L 314.452656 424.313064 
L 314.452656 418.79296 
L 314.096139 418.79296 
z
" clip-path="url(#pe5e460b42e)" style="fill: #ff0000"/>
   </g>
   <g id="patch_25">
    <path d="M 321.226479 427.799446 
L 321.582996 427.799446 
L 321.582996 421.756385 
L 321.226479 421.756385 
z
" clip-path="url(#pe5e460b42e)" style="fill: #ff0000"/>
   </g>
   <g id="patch_26">
    <path d="M 328.356818 423.034724 
L 328.713335 423.034724 
L 328.713335 417.340302 
L 328.356818 417.340302 
z
" clip-path="url(#pe5e460b42e)" style="fill: #ff0000"/>
   </g>
   <g id="patch_27">
    <path d="M 342.617497 422.221235 
L 342.974014 422.221235 
L 342.974014 415.248473 
L 342.617497 415.248473 
z
" clip-path="url(#pe5e460b42e)" style="fill: #ff0000"/>
   </g>
   <g id="patch_28">
    <path d="M 349.747837 414.318771 
L 350.104354 414.318771 
L 350.104354 379.919809 
L 349.747837 379.919809 
z
" clip-path="url(#pe5e460b42e)" style="fill: #ff0000"/>
   </g>
   <g id="patch_29">
    <path d="M 364.008516 389.739783 
L 364.365033 389.739783 
L 364.365033 379.280639 
L 364.008516 379.280639 
z
" clip-path="url(#pe5e460b42e)" style="fill: #ff0000"/>
   </g>
   <g id="patch_30">
    <path d="M 371.138855 386.718252 
L 371.495372 386.718252 
L 371.495372 326.287643 
L 371.138855 326.287643 
z
" clip-path="url(#pe5e460b42e)" style="fill: #ff0000"/>
   </g>
   <g id="patch_31">
    <path d="M 378.269195 341.976359 
L 378.625712 341.976359 
L 378.625712 318.327072 
L 378.269195 318.327072 
z
" clip-path="url(#pe5e460b42e)" style="fill: #ff0000"/>
   </g>
   <g id="patch_32">
    <path d="M 399.660214 358.362351 
L 400.016731 358.362351 
L 400.016731 333.725256 
L 399.660214 333.725256 
z
" clip-path="url(#pe5e460b42e)" style="fill: #ff0000"/>
   </g>
   <g id="patch_33">
    <path d="M 406.790553 335.468447 
L 407.14707 335.468447 
L 407.14707 316.816307 
L 406.790553 316.816307 
z
" clip-path="url(#pe5e460b42e)" style="fill: #ff0000"/>
   </g>
   <g id="patch_34">
    <path d="M 421.051232 334.015788 
L 421.407749 334.015788 
L 421.407749 303.21942 
L 421.051232 303.21942 
z
" clip-path="url(#pe5e460b42e)" style="fill: #ff0000"/>
   </g>
   <g id="patch_35">
    <path d="M 428.181572 309.611119 
L 428.538089 309.611119 
L 428.538089 281.255217 
L 428.181572 281.255217 
z
" clip-path="url(#pe5e460b42e)" style="fill: #ff0000"/>
   </g>
   <g id="patch_36">
    <path d="M 435.311911 228.959497 
L 435.668428 228.959497 
L 435.668428 215.072078 
L 435.311911 215.072078 
z
" clip-path="url(#pe5e460b42e)" style="fill: #ff0000"/>
   </g>
   <g id="patch_37">
    <path d="M 442.442251 180.498797 
L 442.798768 180.498797 
L 442.798768 121.811378 
L 442.442251 121.811378 
z
" clip-path="url(#pe5e460b42e)" style="fill: #ff0000"/>
   </g>
   <g id="patch_38">
    <path d="M 456.70293 157.895425 
L 457.059447 157.895425 
L 457.059447 119.835762 
L 456.70293 119.835762 
z
" clip-path="url(#pe5e460b42e)" style="fill: #ff0000"/>
   </g>
   <g id="patch_39">
    <path d="M 463.833269 132.096203 
L 464.189786 132.096203 
L 464.189786 59.811897 
L 463.833269 59.811897 
z
" clip-path="url(#pe5e460b42e)" style="fill: #ff0000"/>
   </g>
   <g id="patch_40">
    <path d="M 485.224288 138.139264 
L 485.580805 138.139264 
L 485.580805 107.633427 
L 485.224288 107.633427 
z
" clip-path="url(#pe5e460b42e)" style="fill: #ff0000"/>
   </g>
   <g id="patch_41">
    <path d="M 492.354628 152.956385 
L 492.711145 152.956385 
L 492.711145 126.517993 
L 492.354628 126.517993 
z
" clip-path="url(#pe5e460b42e)" style="fill: #ff0000"/>
   </g>
   <g id="patch_42">
    <path d="M 506.615307 198.511767 
L 506.971824 198.511767 
L 506.971824 185.437837 
L 506.615307 185.437837 
z
" clip-path="url(#pe5e460b42e)" style="fill: #ff0000"/>
   </g>
   <g id="patch_43">
    <path d="M 513.745646 196.652364 
L 514.102163 196.652364 
L 514.102163 173.351715 
L 513.745646 173.351715 
z
" clip-path="url(#pe5e460b42e)" style="fill: #ff0000"/>
   </g>
   <g id="patch_44">
    <path d="M 528.006325 210.714102 
L 528.362842 210.714102 
L 528.362842 187.529666 
L 528.006325 187.529666 
z
" clip-path="url(#pe5e460b42e)" style="fill: #ff0000"/>
   </g>
   <g id="patch_45">
    <path d="M 535.136665 202.056255 
L 535.493182 202.056255 
L 535.493182 174.39763 
L 535.136665 174.39763 
z
" clip-path="url(#pe5e460b42e)" style="fill: #ff0000"/>
   </g>
   <g id="patch_46">
    <path d="M 549.397344 193.224089 
L 549.753861 193.224089 
L 549.753861 165.507357 
L 549.397344 165.507357 
z
" clip-path="url(#pe5e460b42e)" style="fill: #ff0000"/>
   </g>
   <g id="patch_47">
    <path d="M 556.527683 163.70606 
L 556.8842 163.70606 
L 556.8842 141.741858 
L 556.527683 141.741858 
z
" clip-path="url(#pe5e460b42e)" style="fill: #ff0000"/>
   </g>
   <g id="patch_48">
    <path d="M 563.658023 176.838097 
L 564.01454 176.838097 
L 564.01454 143.891793 
L 563.658023 143.891793 
z
" clip-path="url(#pe5e460b42e)" style="fill: #ff0000"/>
   </g>
   <g id="patch_49">
    <path d="M 592.179381 224.078564 
L 592.535898 224.078564 
L 592.535898 210.946527 
L 592.179381 210.946527 
z
" clip-path="url(#pe5e460b42e)" style="fill: #ff0000"/>
   </g>
   <g id="patch_50">
    <path d="M 599.309721 217.163907 
L 599.666238 217.163907 
L 599.666238 192.4106 
L 599.309721 192.4106 
z
" clip-path="url(#pe5e460b42e)" style="fill: #ff0000"/>
   </g>
   <g id="patch_51">
    <path d="M 606.44006 207.343933 
L 606.796577 207.343933 
L 606.796577 190.725516 
L 606.44006 190.725516 
z
" clip-path="url(#pe5e460b42e)" style="fill: #ff0000"/>
   </g>
   <g id="patch_52">
    <path d="M 620.700739 229.308136 
L 621.057256 229.308136 
L 621.057256 212.224867 
L 620.700739 212.224867 
z
" clip-path="url(#pe5e460b42e)" style="fill: #ff0000"/>
   </g>
   <g id="patch_53">
    <path d="M 642.091758 236.397111 
L 642.448275 236.397111 
L 642.448275 211.527591 
L 642.091758 211.527591 
z
" clip-path="url(#pe5e460b42e)" style="fill: #ff0000"/>
   </g>
   <g id="patch_54">
    <path d="M 663.482777 248.018382 
L 663.839294 248.018382 
L 663.839294 232.097241 
L 663.482777 232.097241 
z
" clip-path="url(#pe5e460b42e)" style="fill: #ff0000"/>
   </g>
   <g id="patch_55">
    <path d="M 670.613116 246.391404 
L 670.969633 246.391404 
L 670.969633 227.332519 
L 670.613116 227.332519 
z
" clip-path="url(#pe5e460b42e)" style="fill: #ff0000"/>
   </g>
   <g id="patch_56">
    <path d="M 677.743456 241.103726 
L 678.099973 241.103726 
L 678.099973 220.069225 
L 677.743456 220.069225 
z
" clip-path="url(#pe5e460b42e)" style="fill: #ff0000"/>
   </g>
   <g id="patch_57">
    <path d="M 692.004135 223.4975 
L 692.360652 223.4975 
L 692.360652 185.55405 
L 692.004135 185.55405 
z
" clip-path="url(#pe5e460b42e)" style="fill: #ff0000"/>
   </g>
   <g id="patch_58">
    <path d="M 699.134474 202.114361 
L 699.490991 202.114361 
L 699.490991 165.449251 
L 699.134474 165.449251 
z
" clip-path="url(#pe5e460b42e)" style="fill: #ff0000"/>
   </g>
   <g id="patch_59">
    <path d="M 706.264814 187.529666 
L 706.621331 187.529666 
L 706.621331 164.461443 
L 706.264814 164.461443 
z
" clip-path="url(#pe5e460b42e)" style="fill: #ff0000"/>
   </g>
   <g id="patch_60">
    <path d="M 713.395153 181.196073 
L 713.75167 181.196073 
L 713.75167 155.629277 
L 713.395153 155.629277 
z
" clip-path="url(#pe5e460b42e)" style="fill: #ff0000"/>
   </g>
   <g id="patch_61">
    <path d="M 720.525493 167.076229 
L 720.88201 167.076229 
L 720.88201 129.481417 
L 720.525493 129.481417 
z
" clip-path="url(#pe5e460b42e)" style="fill: #ff0000"/>
   </g>
   <g id="patch_62">
    <path d="M 741.916512 180.731222 
L 742.273028 180.731222 
L 742.273028 156.268447 
L 741.916512 156.268447 
z
" clip-path="url(#pe5e460b42e)" style="fill: #ff0000"/>
   </g>
   <g id="patch_63">
    <path d="M 763.30753 172.305801 
L 763.664047 172.305801 
L 763.664047 128.144971 
L 763.30753 128.144971 
z
" clip-path="url(#pe5e460b42e)" style="fill: #ff0000"/>
   </g>
   <g id="patch_64">
    <path d="M 770.43787 133.606968 
L 770.794387 133.606968 
L 770.794387 110.887383 
L 770.43787 110.887383 
z
" clip-path="url(#pe5e460b42e)" style="fill: #ff0000"/>
   </g>
   <g id="patch_65">
    <path d="M 777.568209 130.004374 
L 777.924726 130.004374 
L 777.924726 101.067409 
L 777.568209 101.067409 
z
" clip-path="url(#pe5e460b42e)" style="fill: #ff0000"/>
   </g>
   <g id="patch_66">
    <path d="M 784.698549 101.009303 
L 785.055066 101.009303 
L 785.055066 44.2975 
L 784.698549 44.2975 
z
" clip-path="url(#pe5e460b42e)" style="fill: #ff0000"/>
   </g>
   <g id="patch_67">
    <path d="M 93.055613 437.851845 
L 93.41213 437.851845 
L 93.41213 431.692571 
L 93.055613 431.692571 
z
" clip-path="url(#pe5e460b42e)" style="fill: #008000"/>
   </g>
   <g id="patch_68">
    <path d="M 100.185953 442.674673 
L 100.54247 442.674673 
L 100.54247 435.295165 
L 100.185953 435.295165 
z
" clip-path="url(#pe5e460b42e)" style="fill: #008000"/>
   </g>
   <g id="patch_69">
    <path d="M 121.576972 443.255736 
L 121.933488 443.255736 
L 121.933488 435.004634 
L 121.576972 435.004634 
z
" clip-path="url(#pe5e460b42e)" style="fill: #008000"/>
   </g>
   <g id="patch_70">
    <path d="M 157.228669 422.105023 
L 157.585186 422.105023 
L 157.585186 410.425645 
L 157.228669 410.425645 
z
" clip-path="url(#pe5e460b42e)" style="fill: #008000"/>
   </g>
   <g id="patch_71">
    <path d="M 164.359009 423.499575 
L 164.715526 423.499575 
L 164.715526 417.805152 
L 164.359009 417.805152 
z
" clip-path="url(#pe5e460b42e)" style="fill: #008000"/>
   </g>
   <g id="patch_72">
    <path d="M 178.619688 427.276488 
L 178.976205 427.276488 
L 178.976205 421.117215 
L 178.619688 421.117215 
z
" clip-path="url(#pe5e460b42e)" style="fill: #008000"/>
   </g>
   <g id="patch_73">
    <path d="M 200.010706 426.869744 
L 200.367223 426.869744 
L 200.367223 420.245619 
L 200.010706 420.245619 
z
" clip-path="url(#pe5e460b42e)" style="fill: #008000"/>
   </g>
   <g id="patch_74">
    <path d="M 228.532065 424.661702 
L 228.888582 424.661702 
L 228.888582 420.013194 
L 228.532065 420.013194 
z
" clip-path="url(#pe5e460b42e)" style="fill: #008000"/>
   </g>
   <g id="patch_75">
    <path d="M 249.923083 421.465853 
L 250.2796 421.465853 
L 250.2796 416.061962 
L 249.923083 416.061962 
z
" clip-path="url(#pe5e460b42e)" style="fill: #008000"/>
   </g>
   <g id="patch_76">
    <path d="M 264.183762 420.652364 
L 264.540279 420.652364 
L 264.540279 416.003855 
L 264.183762 416.003855 
z
" clip-path="url(#pe5e460b42e)" style="fill: #008000"/>
   </g>
   <g id="patch_77">
    <path d="M 278.444441 425.64951 
L 278.800958 425.64951 
L 278.800958 419.141599 
L 278.444441 419.141599 
z
" clip-path="url(#pe5e460b42e)" style="fill: #008000"/>
   </g>
   <g id="patch_78">
    <path d="M 285.574781 430.181806 
L 285.931298 430.181806 
L 285.931298 421.407746 
L 285.574781 421.407746 
z
" clip-path="url(#pe5e460b42e)" style="fill: #008000"/>
   </g>
   <g id="patch_79">
    <path d="M 335.487158 422.046916 
L 335.843675 422.046916 
L 335.843675 413.156644 
L 335.487158 413.156644 
z
" clip-path="url(#pe5e460b42e)" style="fill: #008000"/>
   </g>
   <g id="patch_80">
    <path d="M 356.878176 387.299316 
L 357.234693 387.299316 
L 357.234693 365.451326 
L 356.878176 365.451326 
z
" clip-path="url(#pe5e460b42e)" style="fill: #008000"/>
   </g>
   <g id="patch_81">
    <path d="M 385.399535 341.279082 
L 385.756051 341.279082 
L 385.756051 312.45833 
L 385.399535 312.45833 
z
" clip-path="url(#pe5e460b42e)" style="fill: #008000"/>
   </g>
   <g id="patch_82">
    <path d="M 392.529874 371.436281 
L 392.886391 371.436281 
L 392.886391 334.30632 
L 392.529874 334.30632 
z
" clip-path="url(#pe5e460b42e)" style="fill: #008000"/>
   </g>
   <g id="patch_83">
    <path d="M 413.920893 340.175062 
L 414.27741 340.175062 
L 414.27741 320.012156 
L 413.920893 320.012156 
z
" clip-path="url(#pe5e460b42e)" style="fill: #008000"/>
   </g>
   <g id="patch_84">
    <path d="M 449.57259 144.589069 
L 449.929107 144.589069 
L 449.929107 103.333557 
L 449.57259 103.333557 
z
" clip-path="url(#pe5e460b42e)" style="fill: #008000"/>
   </g>
   <g id="patch_85">
    <path d="M 470.963609 111.991404 
L 471.320126 111.991404 
L 471.320126 55.918771 
L 470.963609 55.918771 
z
" clip-path="url(#pe5e460b42e)" style="fill: #008000"/>
   </g>
   <g id="patch_86">
    <path d="M 478.093949 129.481417 
L 478.450465 129.481417 
L 478.450465 85.378693 
L 478.093949 85.378693 
z
" clip-path="url(#pe5e460b42e)" style="fill: #008000"/>
   </g>
   <g id="patch_87">
    <path d="M 499.484967 195.722662 
L 499.841484 195.722662 
L 499.841484 135.524478 
L 499.484967 135.524478 
z
" clip-path="url(#pe5e460b42e)" style="fill: #008000"/>
   </g>
   <g id="patch_88">
    <path d="M 520.875986 202.462999 
L 521.232503 202.462999 
L 521.232503 184.624348 
L 520.875986 184.624348 
z
" clip-path="url(#pe5e460b42e)" style="fill: #008000"/>
   </g>
   <g id="patch_89">
    <path d="M 542.267004 207.808784 
L 542.623521 207.808784 
L 542.623521 191.945749 
L 542.267004 191.945749 
z
" clip-path="url(#pe5e460b42e)" style="fill: #008000"/>
   </g>
   <g id="patch_90">
    <path d="M 570.788363 170.155866 
L 571.14488 170.155866 
L 571.14488 136.570392 
L 570.788363 136.570392 
z
" clip-path="url(#pe5e460b42e)" style="fill: #008000"/>
   </g>
   <g id="patch_91">
    <path d="M 577.918702 197.34964 
L 578.275219 197.34964 
L 578.275219 159.812935 
L 577.918702 159.812935 
z
" clip-path="url(#pe5e460b42e)" style="fill: #008000"/>
   </g>
   <g id="patch_92">
    <path d="M 585.049042 223.148862 
L 585.405559 223.148862 
L 585.405559 199.209043 
L 585.049042 199.209043 
z
" clip-path="url(#pe5e460b42e)" style="fill: #008000"/>
   </g>
   <g id="patch_93">
    <path d="M 613.5704 219.023311 
L 613.926917 219.023311 
L 613.926917 192.817344 
L 613.5704 192.817344 
z
" clip-path="url(#pe5e460b42e)" style="fill: #008000"/>
   </g>
   <g id="patch_94">
    <path d="M 627.831079 224.717733 
L 628.187596 224.717733 
L 628.187596 209.7844 
L 627.831079 209.7844 
z
" clip-path="url(#pe5e460b42e)" style="fill: #008000"/>
   </g>
   <g id="patch_95">
    <path d="M 634.961418 237.84977 
L 635.317935 237.84977 
L 635.317935 218.616566 
L 634.961418 218.616566 
z
" clip-path="url(#pe5e460b42e)" style="fill: #008000"/>
   </g>
   <g id="patch_96">
    <path d="M 649.222097 253.829018 
L 649.578614 253.829018 
L 649.578614 234.247176 
L 649.222097 234.247176 
z
" clip-path="url(#pe5e460b42e)" style="fill: #008000"/>
   </g>
   <g id="patch_97">
    <path d="M 656.352437 257.722143 
L 656.708954 257.722143 
L 656.708954 243.660405 
L 656.352437 243.660405 
z
" clip-path="url(#pe5e460b42e)" style="fill: #008000"/>
   </g>
   <g id="patch_98">
    <path d="M 684.873795 227.623051 
L 685.230312 227.623051 
L 685.230312 215.943674 
L 684.873795 215.943674 
z
" clip-path="url(#pe5e460b42e)" style="fill: #008000"/>
   </g>
   <g id="patch_99">
    <path d="M 727.655832 174.223311 
L 728.012349 174.223311 
L 728.012349 138.778434 
L 727.655832 138.778434 
z
" clip-path="url(#pe5e460b42e)" style="fill: #008000"/>
   </g>
   <g id="patch_100">
    <path d="M 734.786172 181.777137 
L 735.142689 181.777137 
L 735.142689 159.115658 
L 734.786172 159.115658 
z
" clip-path="url(#pe5e460b42e)" style="fill: #008000"/>
   </g>
   <g id="patch_101">
    <path d="M 749.046851 171.027461 
L 749.403368 171.027461 
L 749.403368 156.152234 
L 749.046851 156.152234 
z
" clip-path="url(#pe5e460b42e)" style="fill: #008000"/>
   </g>
   <g id="patch_102">
    <path d="M 756.177191 177.128628 
L 756.533708 177.128628 
L 756.533708 158.592701 
L 756.177191 158.592701 
z
" clip-path="url(#pe5e460b42e)" style="fill: #008000"/>
   </g>
   <g id="patch_103">
    <path d="M 76.834091 438.839653 
L 81.112295 438.839653 
L 81.112295 435.004634 
L 76.834091 435.004634 
z
" clip-path="url(#pe5e460b42e)" style="fill: #ff0000"/>
   </g>
   <g id="patch_104">
    <path d="M 83.96443 435.004634 
L 88.242634 435.004634 
L 88.242634 431.692571 
L 83.96443 431.692571 
z
" clip-path="url(#pe5e460b42e)" style="fill: #ff0000"/>
   </g>
   <g id="patch_105">
    <path d="M 105.355449 442.674673 
L 109.633653 442.674673 
L 109.633653 439.130185 
L 105.355449 439.130185 
z
" clip-path="url(#pe5e460b42e)" style="fill: #ff0000"/>
   </g>
   <g id="patch_106">
    <path d="M 112.485789 439.478823 
L 116.763992 439.478823 
L 116.763992 435.004634 
L 112.485789 435.004634 
z
" clip-path="url(#pe5e460b42e)" style="fill: #ff0000"/>
   </g>
   <g id="patch_107">
    <path d="M 126.746468 443.371949 
L 131.024671 443.371949 
L 131.024671 443.081417 
L 126.746468 443.081417 
z
" clip-path="url(#pe5e460b42e)" style="fill: #ff0000"/>
   </g>
   <g id="patch_108">
    <path d="M 133.876807 443.778693 
L 138.155011 443.778693 
L 138.155011 442.790885 
L 133.876807 442.790885 
z
" clip-path="url(#pe5e460b42e)" style="fill: #ff0000"/>
   </g>
   <g id="patch_109">
    <path d="M 141.007147 442.790885 
L 145.28535 442.790885 
L 145.28535 434.772208 
L 141.007147 434.772208 
z
" clip-path="url(#pe5e460b42e)" style="fill: #ff0000"/>
   </g>
   <g id="patch_110">
    <path d="M 148.137486 434.714102 
L 152.41569 434.714102 
L 152.41569 425.998149 
L 148.137486 425.998149 
z
" clip-path="url(#pe5e460b42e)" style="fill: #ff0000"/>
   </g>
   <g id="patch_111">
    <path d="M 169.528505 420.826683 
L 173.806709 420.826683 
L 173.806709 419.955088 
L 169.528505 419.955088 
z
" clip-path="url(#pe5e460b42e)" style="fill: #ff0000"/>
   </g>
   <g id="patch_112">
    <path d="M 183.789184 422.62798 
L 188.067388 422.62798 
L 188.067388 420.768577 
L 183.789184 420.768577 
z
" clip-path="url(#pe5e460b42e)" style="fill: #ff0000"/>
   </g>
   <g id="patch_113">
    <path d="M 190.919524 420.71047 
L 195.197727 420.71047 
L 195.197727 420.013194 
L 190.919524 420.013194 
z
" clip-path="url(#pe5e460b42e)" style="fill: #ff0000"/>
   </g>
   <g id="patch_114">
    <path d="M 205.180203 426.462999 
L 209.458406 426.462999 
L 209.458406 423.673894 
L 205.180203 423.673894 
z
" clip-path="url(#pe5e460b42e)" style="fill: #ff0000"/>
   </g>
   <g id="patch_115">
    <path d="M 212.310542 424.836021 
L 216.588746 424.836021 
L 216.588746 423.383363 
L 212.310542 423.383363 
z
" clip-path="url(#pe5e460b42e)" style="fill: #ff0000"/>
   </g>
   <g id="patch_116">
    <path d="M 219.440882 424.022532 
L 223.719085 424.022532 
L 223.719085 420.652364 
L 219.440882 420.652364 
z
" clip-path="url(#pe5e460b42e)" style="fill: #ff0000"/>
   </g>
   <g id="patch_117">
    <path d="M 233.701561 426.811637 
L 237.979765 426.811637 
L 237.979765 426.28868 
L 233.701561 426.28868 
z
" clip-path="url(#pe5e460b42e)" style="fill: #ff0000"/>
   </g>
   <g id="patch_118">
    <path d="M 240.8319 426.056255 
L 245.110104 426.056255 
L 245.110104 419.896981 
L 240.8319 419.896981 
z
" clip-path="url(#pe5e460b42e)" style="fill: #ff0000"/>
   </g>
   <g id="patch_119">
    <path d="M 255.092579 419.257811 
L 259.370783 419.257811 
L 259.370783 418.211897 
L 255.092579 418.211897 
z
" clip-path="url(#pe5e460b42e)" style="fill: #ff0000"/>
   </g>
   <g id="patch_120">
    <path d="M 269.353258 421.001002 
L 273.631462 421.001002 
L 273.631462 419.722662 
L 269.353258 419.722662 
z
" clip-path="url(#pe5e460b42e)" style="fill: #ff0000"/>
   </g>
   <g id="patch_121">
    <path d="M 290.744277 428.729147 
L 295.022481 428.729147 
L 295.022481 427.683233 
L 290.744277 427.683233 
z
" clip-path="url(#pe5e460b42e)" style="fill: #ff0000"/>
   </g>
   <g id="patch_122">
    <path d="M 297.874617 428.438615 
L 302.15282 428.438615 
L 302.15282 425.591404 
L 297.874617 425.591404 
z
" clip-path="url(#pe5e460b42e)" style="fill: #ff0000"/>
   </g>
   <g id="patch_123">
    <path d="M 305.004956 425.823829 
L 309.28316 425.823829 
L 309.28316 423.150937 
L 305.004956 423.150937 
z
" clip-path="url(#pe5e460b42e)" style="fill: #ff0000"/>
   </g>
   <g id="patch_124">
    <path d="M 312.135296 422.62798 
L 316.413499 422.62798 
L 316.413499 421.872597 
L 312.135296 421.872597 
z
" clip-path="url(#pe5e460b42e)" style="fill: #ff0000"/>
   </g>
   <g id="patch_125">
    <path d="M 319.265635 421.98881 
L 323.543839 421.98881 
L 323.543839 421.756385 
L 319.265635 421.756385 
z
" clip-path="url(#pe5e460b42e)" style="fill: #ff0000"/>
   </g>
   <g id="patch_126">
    <path d="M 326.395975 421.930704 
L 330.674179 421.930704 
L 330.674179 418.095684 
L 326.395975 418.095684 
z
" clip-path="url(#pe5e460b42e)" style="fill: #ff0000"/>
   </g>
   <g id="patch_127">
    <path d="M 340.656654 422.105023 
L 344.934858 422.105023 
L 344.934858 416.294387 
L 340.656654 416.294387 
z
" clip-path="url(#pe5e460b42e)" style="fill: #ff0000"/>
   </g>
   <g id="patch_128">
    <path d="M 347.786993 414.318771 
L 352.065197 414.318771 
L 352.065197 384.277785 
L 347.786993 384.277785 
z
" clip-path="url(#pe5e460b42e)" style="fill: #ff0000"/>
   </g>
   <g id="patch_129">
    <path d="M 362.047673 386.660146 
L 366.325876 386.660146 
L 366.325876 385.498019 
L 362.047673 385.498019 
z
" clip-path="url(#pe5e460b42e)" style="fill: #ff0000"/>
   </g>
   <g id="patch_130">
    <path d="M 369.178012 384.393998 
L 373.456216 384.393998 
L 373.456216 335.236021 
L 369.178012 335.236021 
z
" clip-path="url(#pe5e460b42e)" style="fill: #ff0000"/>
   </g>
   <g id="patch_131">
    <path d="M 376.308352 332.795554 
L 380.586555 332.795554 
L 380.586555 318.327072 
L 376.308352 318.327072 
z
" clip-path="url(#pe5e460b42e)" style="fill: #ff0000"/>
   </g>
   <g id="patch_132">
    <path d="M 397.69937 355.921884 
L 401.977574 355.921884 
L 401.977574 338.083233 
L 397.69937 338.083233 
z
" clip-path="url(#pe5e460b42e)" style="fill: #ff0000"/>
   </g>
   <g id="patch_133">
    <path d="M 404.82971 328.147046 
L 409.107913 328.147046 
L 409.107913 325.939005 
L 404.82971 325.939005 
z
" clip-path="url(#pe5e460b42e)" style="fill: #ff0000"/>
   </g>
   <g id="patch_134">
    <path d="M 419.090389 332.795554 
L 423.368593 332.795554 
L 423.368593 305.253142 
L 419.090389 305.253142 
z
" clip-path="url(#pe5e460b42e)" style="fill: #ff0000"/>
   </g>
   <g id="patch_135">
    <path d="M 426.220728 293.631871 
L 430.498932 293.631871 
L 430.498932 292.818382 
L 426.220728 292.818382 
z
" clip-path="url(#pe5e460b42e)" style="fill: #ff0000"/>
   </g>
   <g id="patch_136">
    <path d="M 433.351068 215.072078 
L 437.629272 215.072078 
L 437.629272 215.072078 
L 433.351068 215.072078 
z
" clip-path="url(#pe5e460b42e)" style="fill: #ff0000"/>
   </g>
   <g id="patch_137">
    <path d="M 440.481407 175.850289 
L 444.759611 175.850289 
L 444.759611 121.811378 
L 440.481407 121.811378 
z
" clip-path="url(#pe5e460b42e)" style="fill: #ff0000"/>
   </g>
   <g id="patch_138">
    <path d="M 454.742087 134.53667 
L 459.02029 134.53667 
L 459.02029 125.995036 
L 454.742087 125.995036 
z
" clip-path="url(#pe5e460b42e)" style="fill: #ff0000"/>
   </g>
   <g id="patch_139">
    <path d="M 461.872426 129.481417 
L 466.15063 129.481417 
L 466.15063 76.488421 
L 461.872426 76.488421 
z
" clip-path="url(#pe5e460b42e)" style="fill: #ff0000"/>
   </g>
   <g id="patch_140">
    <path d="M 483.263445 132.328628 
L 487.541648 132.328628 
L 487.541648 130.934076 
L 483.263445 130.934076 
z
" clip-path="url(#pe5e460b42e)" style="fill: #ff0000"/>
   </g>
   <g id="patch_141">
    <path d="M 490.393784 146.855217 
L 494.671988 146.855217 
L 494.671988 145.402558 
L 490.393784 145.402558 
z
" clip-path="url(#pe5e460b42e)" style="fill: #ff0000"/>
   </g>
   <g id="patch_142">
    <path d="M 504.654463 193.224089 
L 508.932667 193.224089 
L 508.932667 188.866112 
L 504.654463 188.866112 
z
" clip-path="url(#pe5e460b42e)" style="fill: #ff0000"/>
   </g>
   <g id="patch_143">
    <path d="M 511.784803 193.398408 
L 516.063007 193.398408 
L 516.063007 187.587772 
L 511.784803 187.587772 
z
" clip-path="url(#pe5e460b42e)" style="fill: #ff0000"/>
   </g>
   <g id="patch_144">
    <path d="M 526.045482 189.912027 
L 530.323686 189.912027 
L 530.323686 188.343155 
L 526.045482 188.343155 
z
" clip-path="url(#pe5e460b42e)" style="fill: #ff0000"/>
   </g>
   <g id="patch_145">
    <path d="M 533.175821 196.884789 
L 537.454025 196.884789 
L 537.454025 185.844582 
L 533.175821 185.844582 
z
" clip-path="url(#pe5e460b42e)" style="fill: #ff0000"/>
   </g>
   <g id="patch_146">
    <path d="M 547.436501 188.749899 
L 551.714704 188.749899 
L 551.714704 166.553272 
L 547.436501 166.553272 
z
" clip-path="url(#pe5e460b42e)" style="fill: #ff0000"/>
   </g>
   <g id="patch_147">
    <path d="M 554.56684 155.74549 
L 558.845044 155.74549 
L 558.845044 153.82798 
L 554.56684 153.82798 
z
" clip-path="url(#pe5e460b42e)" style="fill: #ff0000"/>
   </g>
   <g id="patch_148">
    <path d="M 561.69718 163.531741 
L 565.975383 163.531741 
L 565.975383 143.891793 
L 561.69718 143.891793 
z
" clip-path="url(#pe5e460b42e)" style="fill: #ff0000"/>
   </g>
   <g id="patch_149">
    <path d="M 590.218538 222.451586 
L 594.496742 222.451586 
L 594.496742 217.338226 
L 590.218538 217.338226 
z
" clip-path="url(#pe5e460b42e)" style="fill: #ff0000"/>
   </g>
   <g id="patch_150">
    <path d="M 597.348877 210.772208 
L 601.627081 210.772208 
L 601.627081 197.698278 
L 597.348877 197.698278 
z
" clip-path="url(#pe5e460b42e)" style="fill: #ff0000"/>
   </g>
   <g id="patch_151">
    <path d="M 604.479217 204.903466 
L 608.757421 204.903466 
L 608.757421 199.557682 
L 604.479217 199.557682 
z
" clip-path="url(#pe5e460b42e)" style="fill: #ff0000"/>
   </g>
   <g id="patch_152">
    <path d="M 618.739896 223.206968 
L 623.0181 223.206968 
L 623.0181 218.965204 
L 618.739896 218.965204 
z
" clip-path="url(#pe5e460b42e)" style="fill: #ff0000"/>
   </g>
   <g id="patch_153">
    <path d="M 640.130915 236.397111 
L 644.409118 236.397111 
L 644.409118 232.039134 
L 640.130915 232.039134 
z
" clip-path="url(#pe5e460b42e)" style="fill: #ff0000"/>
   </g>
   <g id="patch_154">
    <path d="M 661.521933 246.972468 
L 665.800137 246.972468 
L 665.800137 241.452364 
L 661.521933 241.452364 
z
" clip-path="url(#pe5e460b42e)" style="fill: #ff0000"/>
   </g>
   <g id="patch_155">
    <path d="M 668.652273 245.171171 
L 672.930476 245.171171 
L 672.930476 234.072857 
L 668.652273 234.072857 
z
" clip-path="url(#pe5e460b42e)" style="fill: #ff0000"/>
   </g>
   <g id="patch_156">
    <path d="M 675.782612 230.586475 
L 680.060816 230.586475 
L 680.060816 220.069225 
L 675.782612 220.069225 
z
" clip-path="url(#pe5e460b42e)" style="fill: #ff0000"/>
   </g>
   <g id="patch_157">
    <path d="M 690.043291 223.4975 
L 694.321495 223.4975 
L 694.321495 206.1237 
L 690.043291 206.1237 
z
" clip-path="url(#pe5e460b42e)" style="fill: #ff0000"/>
   </g>
   <g id="patch_158">
    <path d="M 697.173631 202.114361 
L 701.451835 202.114361 
L 701.451835 171.20178 
L 697.173631 171.20178 
z
" clip-path="url(#pe5e460b42e)" style="fill: #ff0000"/>
   </g>
   <g id="patch_159">
    <path d="M 704.30397 178.290756 
L 708.582174 178.290756 
L 708.582174 175.269225 
L 704.30397 175.269225 
z
" clip-path="url(#pe5e460b42e)" style="fill: #ff0000"/>
   </g>
   <g id="patch_160">
    <path d="M 711.43431 181.196073 
L 715.712514 181.196073 
L 715.712514 158.534595 
L 711.43431 158.534595 
z
" clip-path="url(#pe5e460b42e)" style="fill: #ff0000"/>
   </g>
   <g id="patch_161">
    <path d="M 718.56465 155.048213 
L 722.842853 155.048213 
L 722.842853 138.19737 
L 718.56465 138.19737 
z
" clip-path="url(#pe5e460b42e)" style="fill: #ff0000"/>
   </g>
   <g id="patch_162">
    <path d="M 739.955668 173.75846 
L 744.233872 173.75846 
L 744.233872 158.650807 
L 739.955668 158.650807 
z
" clip-path="url(#pe5e460b42e)" style="fill: #ff0000"/>
   </g>
   <g id="patch_163">
    <path d="M 761.346687 172.247695 
L 765.62489 172.247695 
L 765.62489 131.97999 
L 761.346687 131.97999 
z
" clip-path="url(#pe5e460b42e)" style="fill: #ff0000"/>
   </g>
   <g id="patch_164">
    <path d="M 768.477026 133.142117 
L 772.75523 133.142117 
L 772.75523 117.337189 
L 768.477026 117.337189 
z
" clip-path="url(#pe5e460b42e)" style="fill: #ff0000"/>
   </g>
   <g id="patch_165">
    <path d="M 775.607366 117.337189 
L 779.88557 117.337189 
L 779.88557 107.459108 
L 775.607366 107.459108 
z
" clip-path="url(#pe5e460b42e)" style="fill: #ff0000"/>
   </g>
   <g id="patch_166">
    <path d="M 782.737705 101.009303 
L 787.015909 101.009303 
L 787.015909 65.50632 
L 782.737705 65.50632 
z
" clip-path="url(#pe5e460b42e)" style="fill: #ff0000"/>
   </g>
   <g id="patch_167">
    <path d="M 91.09477 436.166761 
L 95.372974 436.166761 
L 95.372974 432.796592 
L 91.09477 432.796592 
z
" clip-path="url(#pe5e460b42e)" style="fill: #008000"/>
   </g>
   <g id="patch_168">
    <path d="M 98.22511 442.616566 
L 102.503313 442.616566 
L 102.503313 436.573505 
L 98.22511 436.573505 
z
" clip-path="url(#pe5e460b42e)" style="fill: #008000"/>
   </g>
   <g id="patch_169">
    <path d="M 119.616128 442.848992 
L 123.894332 442.848992 
L 123.894332 435.004634 
L 119.616128 435.004634 
z
" clip-path="url(#pe5e460b42e)" style="fill: #008000"/>
   </g>
   <g id="patch_170">
    <path d="M 155.267826 421.233427 
L 159.54603 421.233427 
L 159.54603 413.272857 
L 155.267826 413.272857 
z
" clip-path="url(#pe5e460b42e)" style="fill: #008000"/>
   </g>
   <g id="patch_171">
    <path d="M 162.398165 423.441469 
L 166.676369 423.441469 
L 166.676369 420.013194 
L 162.398165 420.013194 
z
" clip-path="url(#pe5e460b42e)" style="fill: #008000"/>
   </g>
   <g id="patch_172">
    <path d="M 176.658844 422.62798 
L 180.937048 422.62798 
L 180.937048 421.117215 
L 176.658844 421.117215 
z
" clip-path="url(#pe5e460b42e)" style="fill: #008000"/>
   </g>
   <g id="patch_173">
    <path d="M 198.049863 425.823829 
L 202.328067 425.823829 
L 202.328067 420.594257 
L 198.049863 420.594257 
z
" clip-path="url(#pe5e460b42e)" style="fill: #008000"/>
   </g>
   <g id="patch_174">
    <path d="M 226.571221 423.615788 
L 230.849425 423.615788 
L 230.849425 421.98881 
L 226.571221 421.98881 
z
" clip-path="url(#pe5e460b42e)" style="fill: #008000"/>
   </g>
   <g id="patch_175">
    <path d="M 247.96224 419.257811 
L 252.240444 419.257811 
L 252.240444 419.083492 
L 247.96224 419.083492 
z
" clip-path="url(#pe5e460b42e)" style="fill: #008000"/>
   </g>
   <g id="patch_176">
    <path d="M 262.222919 419.490237 
L 266.501123 419.490237 
L 266.501123 416.643025 
L 262.222919 416.643025 
z
" clip-path="url(#pe5e460b42e)" style="fill: #008000"/>
   </g>
   <g id="patch_177">
    <path d="M 276.483598 423.848213 
L 280.761802 423.848213 
L 280.761802 420.594257 
L 276.483598 420.594257 
z
" clip-path="url(#pe5e460b42e)" style="fill: #008000"/>
   </g>
   <g id="patch_178">
    <path d="M 283.613938 429.077785 
L 287.892141 429.077785 
L 287.892141 424.313064 
L 283.613938 424.313064 
z
" clip-path="url(#pe5e460b42e)" style="fill: #008000"/>
   </g>
   <g id="patch_179">
    <path d="M 333.526314 420.942896 
L 337.804518 420.942896 
L 337.804518 417.04977 
L 333.526314 417.04977 
z
" clip-path="url(#pe5e460b42e)" style="fill: #008000"/>
   </g>
   <g id="patch_180">
    <path d="M 354.917333 383.348084 
L 359.195537 383.348084 
L 359.195537 379.338745 
L 354.917333 379.338745 
z
" clip-path="url(#pe5e460b42e)" style="fill: #008000"/>
   </g>
   <g id="patch_181">
    <path d="M 383.438691 336.572468 
L 387.716895 336.572468 
L 387.716895 312.923181 
L 383.438691 312.923181 
z
" clip-path="url(#pe5e460b42e)" style="fill: #008000"/>
   </g>
   <g id="patch_182">
    <path d="M 390.569031 353.481417 
L 394.847234 353.481417 
L 394.847234 334.30632 
L 390.569031 334.30632 
z
" clip-path="url(#pe5e460b42e)" style="fill: #008000"/>
   </g>
   <g id="patch_183">
    <path d="M 411.960049 334.480639 
L 416.238253 334.480639 
L 416.238253 320.012156 
L 411.960049 320.012156 
z
" clip-path="url(#pe5e460b42e)" style="fill: #008000"/>
   </g>
   <g id="patch_184">
    <path d="M 447.611747 131.863778 
L 451.889951 131.863778 
L 451.889951 113.618382 
L 447.611747 113.618382 
z
" clip-path="url(#pe5e460b42e)" style="fill: #008000"/>
   </g>
   <g id="patch_185">
    <path d="M 469.002766 102.636281 
L 473.280969 102.636281 
L 473.280969 77.185697 
L 469.002766 77.185697 
z
" clip-path="url(#pe5e460b42e)" style="fill: #008000"/>
   </g>
   <g id="patch_186">
    <path d="M 476.133105 126.343674 
L 480.411309 126.343674 
L 480.411309 93.455477 
L 476.133105 93.455477 
z
" clip-path="url(#pe5e460b42e)" style="fill: #008000"/>
   </g>
   <g id="patch_187">
    <path d="M 497.524124 193.805152 
L 501.802327 193.805152 
L 501.802327 138.19737 
L 497.524124 138.19737 
z
" clip-path="url(#pe5e460b42e)" style="fill: #008000"/>
   </g>
   <g id="patch_188">
    <path d="M 518.915142 200.196851 
L 523.193346 200.196851 
L 523.193346 187.587772 
L 518.915142 187.587772 
z
" clip-path="url(#pe5e460b42e)" style="fill: #008000"/>
   </g>
   <g id="patch_189">
    <path d="M 540.306161 196.71047 
L 544.584365 196.71047 
L 544.584365 194.96728 
L 540.306161 194.96728 
z
" clip-path="url(#pe5e460b42e)" style="fill: #008000"/>
   </g>
   <g id="patch_190">
    <path d="M 568.827519 170.155866 
L 573.105723 170.155866 
L 573.105723 145.170133 
L 568.827519 145.170133 
z
" clip-path="url(#pe5e460b42e)" style="fill: #008000"/>
   </g>
   <g id="patch_191">
    <path d="M 575.957859 195.722662 
L 580.236062 195.722662 
L 580.236062 159.929147 
L 575.957859 159.929147 
z
" clip-path="url(#pe5e460b42e)" style="fill: #008000"/>
   </g>
   <g id="patch_192">
    <path d="M 583.088198 209.029018 
L 587.366402 209.029018 
L 587.366402 201.242766 
L 583.088198 201.242766 
z
" clip-path="url(#pe5e460b42e)" style="fill: #008000"/>
   </g>
   <g id="patch_193">
    <path d="M 611.609556 218.035503 
L 615.88776 218.035503 
L 615.88776 201.417085 
L 611.609556 201.417085 
z
" clip-path="url(#pe5e460b42e)" style="fill: #008000"/>
   </g>
   <g id="patch_194">
    <path d="M 625.870235 224.717733 
L 630.148439 224.717733 
L 630.148439 218.848992 
L 625.870235 218.848992 
z
" clip-path="url(#pe5e460b42e)" style="fill: #008000"/>
   </g>
   <g id="patch_195">
    <path d="M 633.000575 234.072857 
L 637.278779 234.072857 
L 637.278779 222.451586 
L 633.000575 222.451586 
z
" clip-path="url(#pe5e460b42e)" style="fill: #008000"/>
   </g>
   <g id="patch_196">
    <path d="M 647.261254 253.829018 
L 651.539458 253.829018 
L 651.539458 242.14964 
L 647.261254 242.14964 
z
" clip-path="url(#pe5e460b42e)" style="fill: #008000"/>
   </g>
   <g id="patch_197">
    <path d="M 654.391594 253.712805 
L 658.669797 253.712805 
L 658.669797 251.504763 
L 654.391594 251.504763 
z
" clip-path="url(#pe5e460b42e)" style="fill: #008000"/>
   </g>
   <g id="patch_198">
    <path d="M 682.912952 224.310989 
L 687.191156 224.310989 
L 687.191156 222.335373 
L 682.912952 222.335373 
z
" clip-path="url(#pe5e460b42e)" style="fill: #008000"/>
   </g>
   <g id="patch_199">
    <path d="M 725.694989 165.507357 
L 729.973193 165.507357 
L 729.973193 140.928369 
L 725.694989 140.928369 
z
" clip-path="url(#pe5e460b42e)" style="fill: #008000"/>
   </g>
   <g id="patch_200">
    <path d="M 732.825329 172.712545 
L 737.103532 172.712545 
L 737.103532 161.439912 
L 732.825329 161.439912 
z
" clip-path="url(#pe5e460b42e)" style="fill: #008000"/>
   </g>
   <g id="patch_201">
    <path d="M 747.086008 167.308654 
L 751.364211 167.308654 
L 751.364211 164.519549 
L 747.086008 164.519549 
z
" clip-path="url(#pe5e460b42e)" style="fill: #008000"/>
   </g>
   <g id="patch_202">
    <path d="M 754.216347 174.513842 
L 758.494551 174.513842 
L 758.494551 164.34523 
L 754.216347 164.34523 
z
" clip-path="url(#pe5e460b42e)" style="fill: #008000"/>
   </g>
   <g id="matplotlib.axis_1">
    <g id="xtick_1">
     <g id="line2d_1">
      <defs>
       <path id="m37b0a1660e" d="M 0 0 
L 0 3.5 
" style="stroke: #000000; stroke-width: 0.8"/>
      </defs>
      <g>
       <use xlink:href="#m37b0a1660e" x="78.973193" y="467.6575" style="stroke: #000000; stroke-width: 0.8"/>
      </g>
     </g>
     <g id="text_1">
      <!-- 2025-05-21 -->
      <g transform="translate(66.422047 506.830859) rotate(-45) scale(0.08 -0.08)">
       <defs>
        <path id="SimHei-32" d="M 300 250 
Q 325 625 650 925 
Q 975 1225 1475 1862 
Q 1975 2500 2125 2850 
Q 2275 3200 2237 3450 
Q 2200 3700 2000 3862 
Q 1800 4025 1537 4000 
Q 1275 3975 1037 3800 
Q 800 3625 675 3275 
L 200 3350 
Q 400 3925 712 4187 
Q 1025 4450 1450 4475 
Q 1700 4500 1900 4462 
Q 2100 4425 2312 4287 
Q 2525 4150 2662 3875 
Q 2800 3600 2762 3212 
Q 2725 2825 2375 2287 
Q 2025 1750 1025 600 
L 2825 600 
L 2825 150 
L 300 150 
L 300 250 
z
" transform="scale(0.015625)"/>
        <path id="SimHei-30" d="M 225 2537 
Q 250 3200 412 3587 
Q 575 3975 875 4225 
Q 1175 4475 1612 4475 
Q 2050 4475 2375 4112 
Q 2700 3750 2800 3200 
Q 2900 2650 2862 1937 
Q 2825 1225 2612 775 
Q 2400 325 1975 150 
Q 1550 -25 1125 187 
Q 700 400 525 750 
Q 350 1100 275 1487 
Q 200 1875 225 2537 
z
M 750 2687 
Q 675 2000 800 1462 
Q 925 925 1212 700 
Q 1500 475 1800 612 
Q 2100 750 2237 1162 
Q 2375 1575 2375 2062 
Q 2375 2550 2337 2950 
Q 2300 3350 2112 3675 
Q 1925 4000 1612 4012 
Q 1300 4025 1062 3700 
Q 825 3375 750 2687 
z
" transform="scale(0.015625)"/>
        <path id="SimHei-35" d="M 550 1325 
Q 725 650 1150 575 
Q 1575 500 1837 662 
Q 2100 825 2212 1087 
Q 2325 1350 2312 1675 
Q 2300 2000 2137 2225 
Q 1975 2450 1725 2525 
Q 1475 2600 1162 2525 
Q 850 2450 650 2175 
L 225 2225 
Q 275 2375 700 4375 
L 2675 4375 
L 2675 3925 
L 1075 3925 
Q 950 3250 825 2850 
Q 1200 3025 1525 3012 
Q 1850 3000 2150 2862 
Q 2450 2725 2587 2487 
Q 2725 2250 2787 2012 
Q 2850 1775 2837 1500 
Q 2825 1225 2725 937 
Q 2625 650 2425 462 
Q 2225 275 1937 162 
Q 1650 50 1275 75 
Q 900 100 562 350 
Q 225 600 100 1200 
L 550 1325 
z
" transform="scale(0.015625)"/>
        <path id="SimHei-2d" d="M 2975 2125 
L 125 2125 
L 125 2525 
L 2975 2525 
L 2975 2125 
z
" transform="scale(0.015625)"/>
        <path id="SimHei-31" d="M 1400 3600 
Q 1075 3275 575 2975 
L 575 3450 
Q 1200 3875 1600 4450 
L 1900 4450 
L 1900 150 
L 1400 150 
L 1400 3600 
z
" transform="scale(0.015625)"/>
       </defs>
       <use xlink:href="#SimHei-32"/>
       <use xlink:href="#SimHei-30" transform="translate(50 0)"/>
       <use xlink:href="#SimHei-32" transform="translate(100 0)"/>
       <use xlink:href="#SimHei-35" transform="translate(150 0)"/>
       <use xlink:href="#SimHei-2d" transform="translate(200 0)"/>
       <use xlink:href="#SimHei-30" transform="translate(250 0)"/>
       <use xlink:href="#SimHei-35" transform="translate(300 0)"/>
       <use xlink:href="#SimHei-2d" transform="translate(350 0)"/>
       <use xlink:href="#SimHei-32" transform="translate(400 0)"/>
       <use xlink:href="#SimHei-31" transform="translate(450 0)"/>
      </g>
     </g>
    </g>
    <g id="xtick_2">
     <g id="line2d_2">
      <g>
       <use xlink:href="#m37b0a1660e" x="114.62489" y="467.6575" style="stroke: #000000; stroke-width: 0.8"/>
      </g>
     </g>
     <g id="text_2">
      <!-- 2025-06-09 -->
      <g transform="translate(102.073745 506.830859) rotate(-45) scale(0.08 -0.08)">
       <defs>
        <path id="SimHei-36" d="M 250 1612 
Q 275 1975 387 2225 
Q 500 2475 725 2850 
L 1750 4450 
L 2325 4450 
L 1275 2800 
Q 1950 2975 2350 2750 
Q 2750 2525 2887 2237 
Q 3025 1950 3037 1612 
Q 3050 1275 2937 950 
Q 2825 625 2537 362 
Q 2250 100 1737 75 
Q 1225 50 862 262 
Q 500 475 362 862 
Q 225 1250 250 1612 
z
M 1025 787 
Q 1250 550 1625 525 
Q 2000 500 2250 775 
Q 2500 1050 2500 1575 
Q 2500 2100 2187 2300 
Q 1875 2500 1487 2450 
Q 1100 2400 925 2075 
Q 750 1750 775 1387 
Q 800 1025 1025 787 
z
" transform="scale(0.015625)"/>
        <path id="SimHei-39" d="M 800 75 
Q 1350 1000 1700 1750 
Q 1075 1650 662 1912 
Q 250 2175 162 2625 
Q 75 3075 175 3437 
Q 275 3800 487 4037 
Q 700 4275 1000 4375 
Q 1300 4475 1537 4475 
Q 1775 4475 2025 4375 
Q 2275 4275 2475 4075 
Q 2675 3875 2750 3662 
Q 2825 3450 2825 3112 
Q 2825 2775 2575 2250 
Q 2325 1725 1350 75 
L 800 75 
z
M 662 2875 
Q 700 2550 937 2337 
Q 1175 2125 1450 2150 
Q 1725 2175 1887 2300 
Q 2050 2425 2200 2725 
Q 2300 3100 2250 3362 
Q 2200 3625 1987 3800 
Q 1775 3975 1525 3975 
Q 1375 4000 1137 3900 
Q 900 3800 762 3500 
Q 625 3200 662 2875 
z
" transform="scale(0.015625)"/>
       </defs>
       <use xlink:href="#SimHei-32"/>
       <use xlink:href="#SimHei-30" transform="translate(50 0)"/>
       <use xlink:href="#SimHei-32" transform="translate(100 0)"/>
       <use xlink:href="#SimHei-35" transform="translate(150 0)"/>
       <use xlink:href="#SimHei-2d" transform="translate(200 0)"/>
       <use xlink:href="#SimHei-30" transform="translate(250 0)"/>
       <use xlink:href="#SimHei-36" transform="translate(300 0)"/>
       <use xlink:href="#SimHei-2d" transform="translate(350 0)"/>
       <use xlink:href="#SimHei-30" transform="translate(400 0)"/>
       <use xlink:href="#SimHei-39" transform="translate(450 0)"/>
      </g>
     </g>
    </g>
    <g id="xtick_3">
     <g id="line2d_3">
      <g>
       <use xlink:href="#m37b0a1660e" x="150.276588" y="467.6575" style="stroke: #000000; stroke-width: 0.8"/>
      </g>
     </g>
     <g id="text_3">
      <!-- 2025-06-25 -->
      <g transform="translate(137.725443 506.830859) rotate(-45) scale(0.08 -0.08)">
       <use xlink:href="#SimHei-32"/>
       <use xlink:href="#SimHei-30" transform="translate(50 0)"/>
       <use xlink:href="#SimHei-32" transform="translate(100 0)"/>
       <use xlink:href="#SimHei-35" transform="translate(150 0)"/>
       <use xlink:href="#SimHei-2d" transform="translate(200 0)"/>
       <use xlink:href="#SimHei-30" transform="translate(250 0)"/>
       <use xlink:href="#SimHei-36" transform="translate(300 0)"/>
       <use xlink:href="#SimHei-2d" transform="translate(350 0)"/>
       <use xlink:href="#SimHei-32" transform="translate(400 0)"/>
       <use xlink:href="#SimHei-35" transform="translate(450 0)"/>
      </g>
     </g>
    </g>
    <g id="xtick_4">
     <g id="line2d_4">
      <g>
       <use xlink:href="#m37b0a1660e" x="185.928286" y="467.6575" style="stroke: #000000; stroke-width: 0.8"/>
      </g>
     </g>
     <g id="text_4">
      <!-- 2025-07-07 -->
      <g transform="translate(173.377141 506.830859) rotate(-45) scale(0.08 -0.08)">
       <defs>
        <path id="SimHei-37" d="M 850 150 
Q 1300 2050 2425 3925 
L 275 3925 
L 275 4375 
L 2950 4375 
L 2950 3950 
Q 1775 2050 1400 150 
L 850 150 
z
" transform="scale(0.015625)"/>
       </defs>
       <use xlink:href="#SimHei-32"/>
       <use xlink:href="#SimHei-30" transform="translate(50 0)"/>
       <use xlink:href="#SimHei-32" transform="translate(100 0)"/>
       <use xlink:href="#SimHei-35" transform="translate(150 0)"/>
       <use xlink:href="#SimHei-2d" transform="translate(200 0)"/>
       <use xlink:href="#SimHei-30" transform="translate(250 0)"/>
       <use xlink:href="#SimHei-37" transform="translate(300 0)"/>
       <use xlink:href="#SimHei-2d" transform="translate(350 0)"/>
       <use xlink:href="#SimHei-30" transform="translate(400 0)"/>
       <use xlink:href="#SimHei-37" transform="translate(450 0)"/>
      </g>
     </g>
    </g>
    <g id="xtick_5">
     <g id="line2d_5">
      <g>
       <use xlink:href="#m37b0a1660e" x="221.579984" y="467.6575" style="stroke: #000000; stroke-width: 0.8"/>
      </g>
     </g>
     <g id="text_5">
      <!-- 2025-07-17 -->
      <g transform="translate(209.028838 506.830859) rotate(-45) scale(0.08 -0.08)">
       <use xlink:href="#SimHei-32"/>
       <use xlink:href="#SimHei-30" transform="translate(50 0)"/>
       <use xlink:href="#SimHei-32" transform="translate(100 0)"/>
       <use xlink:href="#SimHei-35" transform="translate(150 0)"/>
       <use xlink:href="#SimHei-2d" transform="translate(200 0)"/>
       <use xlink:href="#SimHei-30" transform="translate(250 0)"/>
       <use xlink:href="#SimHei-37" transform="translate(300 0)"/>
       <use xlink:href="#SimHei-2d" transform="translate(350 0)"/>
       <use xlink:href="#SimHei-31" transform="translate(400 0)"/>
       <use xlink:href="#SimHei-37" transform="translate(450 0)"/>
      </g>
     </g>
    </g>
    <g id="xtick_6">
     <g id="line2d_6">
      <g>
       <use xlink:href="#m37b0a1660e" x="257.231681" y="467.6575" style="stroke: #000000; stroke-width: 0.8"/>
      </g>
     </g>
     <g id="text_6">
      <!-- 2025-07-25 -->
      <g transform="translate(244.680536 506.830859) rotate(-45) scale(0.08 -0.08)">
       <use xlink:href="#SimHei-32"/>
       <use xlink:href="#SimHei-30" transform="translate(50 0)"/>
       <use xlink:href="#SimHei-32" transform="translate(100 0)"/>
       <use xlink:href="#SimHei-35" transform="translate(150 0)"/>
       <use xlink:href="#SimHei-2d" transform="translate(200 0)"/>
       <use xlink:href="#SimHei-30" transform="translate(250 0)"/>
       <use xlink:href="#SimHei-37" transform="translate(300 0)"/>
       <use xlink:href="#SimHei-2d" transform="translate(350 0)"/>
       <use xlink:href="#SimHei-32" transform="translate(400 0)"/>
       <use xlink:href="#SimHei-35" transform="translate(450 0)"/>
      </g>
     </g>
    </g>
    <g id="xtick_7">
     <g id="line2d_7">
      <g>
       <use xlink:href="#m37b0a1660e" x="292.883379" y="467.6575" style="stroke: #000000; stroke-width: 0.8"/>
      </g>
     </g>
     <g id="text_7">
      <!-- 2025-08-01 -->
      <g transform="translate(280.332234 506.830859) rotate(-45) scale(0.08 -0.08)">
       <defs>
        <path id="SimHei-38" d="M 175 1375 
Q 175 1675 325 1962 
Q 475 2250 825 2425 
Q 525 2600 425 2812 
Q 325 3025 312 3300 
Q 300 3575 387 3775 
Q 475 3975 650 4150 
Q 825 4325 1037 4387 
Q 1250 4450 1500 4450 
Q 1750 4450 1950 4400 
Q 2150 4350 2375 4187 
Q 2600 4025 2700 3725 
Q 2800 3425 2687 3025 
Q 2575 2625 2100 2400 
Q 2525 2275 2700 2012 
Q 2875 1750 2875 1375 
Q 2875 1000 2762 775 
Q 2650 550 2512 400 
Q 2375 250 2137 162 
Q 1900 75 1537 75 
Q 1175 75 912 162 
Q 650 250 475 425 
Q 300 600 237 837 
Q 175 1075 175 1375 
z
M 687 1400 
Q 675 1100 787 875 
Q 900 650 1200 587 
Q 1500 525 1825 600 
Q 2150 675 2275 950 
Q 2400 1225 2362 1500 
Q 2325 1775 2050 1962 
Q 1775 2150 1450 2125 
Q 1125 2100 912 1900 
Q 700 1700 687 1400 
z
M 775 3350 
Q 775 3100 950 2875 
Q 1125 2650 1500 2650 
Q 1875 2650 2062 2875 
Q 2250 3100 2237 3412 
Q 2225 3725 2012 3875 
Q 1800 4025 1437 4000 
Q 1075 3975 925 3787 
Q 775 3600 775 3350 
z
" transform="scale(0.015625)"/>
       </defs>
       <use xlink:href="#SimHei-32"/>
       <use xlink:href="#SimHei-30" transform="translate(50 0)"/>
       <use xlink:href="#SimHei-32" transform="translate(100 0)"/>
       <use xlink:href="#SimHei-35" transform="translate(150 0)"/>
       <use xlink:href="#SimHei-2d" transform="translate(200 0)"/>
       <use xlink:href="#SimHei-30" transform="translate(250 0)"/>
       <use xlink:href="#SimHei-38" transform="translate(300 0)"/>
       <use xlink:href="#SimHei-2d" transform="translate(350 0)"/>
       <use xlink:href="#SimHei-30" transform="translate(400 0)"/>
       <use xlink:href="#SimHei-31" transform="translate(450 0)"/>
      </g>
     </g>
    </g>
    <g id="xtick_8">
     <g id="line2d_8">
      <g>
       <use xlink:href="#m37b0a1660e" x="328.535077" y="467.6575" style="stroke: #000000; stroke-width: 0.8"/>
      </g>
     </g>
     <g id="text_8">
      <!-- 2025-08-13 -->
      <g transform="translate(315.983931 506.830859) rotate(-45) scale(0.08 -0.08)">
       <defs>
        <path id="SimHei-33" d="M 250 1225 
L 700 1300 
Q 800 975 1025 762 
Q 1250 550 1587 562 
Q 1925 575 2125 837 
Q 2325 1100 2300 1437 
Q 2275 1775 2037 1962 
Q 1800 2150 1275 2225 
L 1275 2550 
Q 1800 2600 2037 2825 
Q 2275 3050 2250 3412 
Q 2225 3775 1925 3937 
Q 1625 4100 1287 3975 
Q 950 3850 750 3275 
L 300 3350 
Q 450 3800 712 4100 
Q 975 4400 1425 4450 
Q 1875 4500 2212 4337 
Q 2550 4175 2687 3837 
Q 2825 3500 2725 3100 
Q 2625 2700 2150 2400 
Q 2500 2250 2687 1950 
Q 2875 1650 2812 1162 
Q 2750 675 2375 375 
Q 2000 75 1525 87 
Q 1050 100 700 387 
Q 350 675 250 1225 
z
" transform="scale(0.015625)"/>
       </defs>
       <use xlink:href="#SimHei-32"/>
       <use xlink:href="#SimHei-30" transform="translate(50 0)"/>
       <use xlink:href="#SimHei-32" transform="translate(100 0)"/>
       <use xlink:href="#SimHei-35" transform="translate(150 0)"/>
       <use xlink:href="#SimHei-2d" transform="translate(200 0)"/>
       <use xlink:href="#SimHei-30" transform="translate(250 0)"/>
       <use xlink:href="#SimHei-38" transform="translate(300 0)"/>
       <use xlink:href="#SimHei-2d" transform="translate(350 0)"/>
       <use xlink:href="#SimHei-31" transform="translate(400 0)"/>
       <use xlink:href="#SimHei-33" transform="translate(450 0)"/>
      </g>
     </g>
    </g>
    <g id="xtick_9">
     <g id="line2d_9">
      <g>
       <use xlink:href="#m37b0a1660e" x="364.186774" y="467.6575" style="stroke: #000000; stroke-width: 0.8"/>
      </g>
     </g>
     <g id="text_9">
      <!-- 2025-08-26 -->
      <g transform="translate(351.635629 506.830859) rotate(-45) scale(0.08 -0.08)">
       <use xlink:href="#SimHei-32"/>
       <use xlink:href="#SimHei-30" transform="translate(50 0)"/>
       <use xlink:href="#SimHei-32" transform="translate(100 0)"/>
       <use xlink:href="#SimHei-35" transform="translate(150 0)"/>
       <use xlink:href="#SimHei-2d" transform="translate(200 0)"/>
       <use xlink:href="#SimHei-30" transform="translate(250 0)"/>
       <use xlink:href="#SimHei-38" transform="translate(300 0)"/>
       <use xlink:href="#SimHei-2d" transform="translate(350 0)"/>
       <use xlink:href="#SimHei-32" transform="translate(400 0)"/>
       <use xlink:href="#SimHei-36" transform="translate(450 0)"/>
      </g>
     </g>
    </g>
    <g id="xtick_10">
     <g id="line2d_10">
      <g>
       <use xlink:href="#m37b0a1660e" x="399.838472" y="467.6575" style="stroke: #000000; stroke-width: 0.8"/>
      </g>
     </g>
     <g id="text_10">
      <!-- 2025-09-11 -->
      <g transform="translate(387.287327 506.830859) rotate(-45) scale(0.08 -0.08)">
       <use xlink:href="#SimHei-32"/>
       <use xlink:href="#SimHei-30" transform="translate(50 0)"/>
       <use xlink:href="#SimHei-32" transform="translate(100 0)"/>
       <use xlink:href="#SimHei-35" transform="translate(150 0)"/>
       <use xlink:href="#SimHei-2d" transform="translate(200 0)"/>
       <use xlink:href="#SimHei-30" transform="translate(250 0)"/>
       <use xlink:href="#SimHei-39" transform="translate(300 0)"/>
       <use xlink:href="#SimHei-2d" transform="translate(350 0)"/>
       <use xlink:href="#SimHei-31" transform="translate(400 0)"/>
       <use xlink:href="#SimHei-31" transform="translate(450 0)"/>
      </g>
     </g>
    </g>
    <g id="xtick_11">
     <g id="line2d_11">
      <g>
       <use xlink:href="#m37b0a1660e" x="435.49017" y="467.6575" style="stroke: #000000; stroke-width: 0.8"/>
      </g>
     </g>
     <g id="text_11">
      <!-- 2025-09-23 -->
      <g transform="translate(422.939024 506.830859) rotate(-45) scale(0.08 -0.08)">
       <use xlink:href="#SimHei-32"/>
       <use xlink:href="#SimHei-30" transform="translate(50 0)"/>
       <use xlink:href="#SimHei-32" transform="translate(100 0)"/>
       <use xlink:href="#SimHei-35" transform="translate(150 0)"/>
       <use xlink:href="#SimHei-2d" transform="translate(200 0)"/>
       <use xlink:href="#SimHei-30" transform="translate(250 0)"/>
       <use xlink:href="#SimHei-39" transform="translate(300 0)"/>
       <use xlink:href="#SimHei-2d" transform="translate(350 0)"/>
       <use xlink:href="#SimHei-32" transform="translate(400 0)"/>
       <use xlink:href="#SimHei-33" transform="translate(450 0)"/>
      </g>
     </g>
    </g>
    <g id="xtick_12">
     <g id="line2d_12">
      <g>
       <use xlink:href="#m37b0a1660e" x="471.141867" y="467.6575" style="stroke: #000000; stroke-width: 0.8"/>
      </g>
     </g>
     <g id="text_12">
      <!-- 2025-09-30 -->
      <g transform="translate(458.590722 506.830859) rotate(-45) scale(0.08 -0.08)">
       <use xlink:href="#SimHei-32"/>
       <use xlink:href="#SimHei-30" transform="translate(50 0)"/>
       <use xlink:href="#SimHei-32" transform="translate(100 0)"/>
       <use xlink:href="#SimHei-35" transform="translate(150 0)"/>
       <use xlink:href="#SimHei-2d" transform="translate(200 0)"/>
       <use xlink:href="#SimHei-30" transform="translate(250 0)"/>
       <use xlink:href="#SimHei-39" transform="translate(300 0)"/>
       <use xlink:href="#SimHei-2d" transform="translate(350 0)"/>
       <use xlink:href="#SimHei-33" transform="translate(400 0)"/>
       <use xlink:href="#SimHei-30" transform="translate(450 0)"/>
      </g>
     </g>
    </g>
    <g id="xtick_13">
     <g id="line2d_13">
      <g>
       <use xlink:href="#m37b0a1660e" x="506.793565" y="467.6575" style="stroke: #000000; stroke-width: 0.8"/>
      </g>
     </g>
     <g id="text_13">
      <!-- 2025-10-15 -->
      <g transform="translate(494.24242 506.830859) rotate(-45) scale(0.08 -0.08)">
       <use xlink:href="#SimHei-32"/>
       <use xlink:href="#SimHei-30" transform="translate(50 0)"/>
       <use xlink:href="#SimHei-32" transform="translate(100 0)"/>
       <use xlink:href="#SimHei-35" transform="translate(150 0)"/>
       <use xlink:href="#SimHei-2d" transform="translate(200 0)"/>
       <use xlink:href="#SimHei-31" transform="translate(250 0)"/>
       <use xlink:href="#SimHei-30" transform="translate(300 0)"/>
       <use xlink:href="#SimHei-2d" transform="translate(350 0)"/>
       <use xlink:href="#SimHei-31" transform="translate(400 0)"/>
       <use xlink:href="#SimHei-35" transform="translate(450 0)"/>
      </g>
     </g>
    </g>
    <g id="xtick_14">
     <g id="line2d_14">
      <g>
       <use xlink:href="#m37b0a1660e" x="542.445263" y="467.6575" style="stroke: #000000; stroke-width: 0.8"/>
      </g>
     </g>
     <g id="text_14">
      <!-- 2025-10-23 -->
      <g transform="translate(529.894118 506.830859) rotate(-45) scale(0.08 -0.08)">
       <use xlink:href="#SimHei-32"/>
       <use xlink:href="#SimHei-30" transform="translate(50 0)"/>
       <use xlink:href="#SimHei-32" transform="translate(100 0)"/>
       <use xlink:href="#SimHei-35" transform="translate(150 0)"/>
       <use xlink:href="#SimHei-2d" transform="translate(200 0)"/>
       <use xlink:href="#SimHei-31" transform="translate(250 0)"/>
       <use xlink:href="#SimHei-30" transform="translate(300 0)"/>
       <use xlink:href="#SimHei-2d" transform="translate(350 0)"/>
       <use xlink:href="#SimHei-32" transform="translate(400 0)"/>
       <use xlink:href="#SimHei-33" transform="translate(450 0)"/>
      </g>
     </g>
    </g>
    <g id="xtick_15">
     <g id="line2d_15">
      <g>
       <use xlink:href="#m37b0a1660e" x="578.096961" y="467.6575" style="stroke: #000000; stroke-width: 0.8"/>
      </g>
     </g>
     <g id="text_15">
      <!-- 2025-10-31 -->
      <g transform="translate(565.545815 506.830859) rotate(-45) scale(0.08 -0.08)">
       <use xlink:href="#SimHei-32"/>
       <use xlink:href="#SimHei-30" transform="translate(50 0)"/>
       <use xlink:href="#SimHei-32" transform="translate(100 0)"/>
       <use xlink:href="#SimHei-35" transform="translate(150 0)"/>
       <use xlink:href="#SimHei-2d" transform="translate(200 0)"/>
       <use xlink:href="#SimHei-31" transform="translate(250 0)"/>
       <use xlink:href="#SimHei-30" transform="translate(300 0)"/>
       <use xlink:href="#SimHei-2d" transform="translate(350 0)"/>
       <use xlink:href="#SimHei-33" transform="translate(400 0)"/>
       <use xlink:href="#SimHei-31" transform="translate(450 0)"/>
      </g>
     </g>
    </g>
    <g id="xtick_16">
     <g id="line2d_16">
      <g>
       <use xlink:href="#m37b0a1660e" x="613.748658" y="467.6575" style="stroke: #000000; stroke-width: 0.8"/>
      </g>
     </g>
     <g id="text_16">
      <!-- 2025-11-11 -->
      <g transform="translate(601.197513 506.830859) rotate(-45) scale(0.08 -0.08)">
       <use xlink:href="#SimHei-32"/>
       <use xlink:href="#SimHei-30" transform="translate(50 0)"/>
       <use xlink:href="#SimHei-32" transform="translate(100 0)"/>
       <use xlink:href="#SimHei-35" transform="translate(150 0)"/>
       <use xlink:href="#SimHei-2d" transform="translate(200 0)"/>
       <use xlink:href="#SimHei-31" transform="translate(250 0)"/>
       <use xlink:href="#SimHei-31" transform="translate(300 0)"/>
       <use xlink:href="#SimHei-2d" transform="translate(350 0)"/>
       <use xlink:href="#SimHei-31" transform="translate(400 0)"/>
       <use xlink:href="#SimHei-31" transform="translate(450 0)"/>
      </g>
     </g>
    </g>
    <g id="xtick_17">
     <g id="line2d_17">
      <g>
       <use xlink:href="#m37b0a1660e" x="649.400356" y="467.6575" style="stroke: #000000; stroke-width: 0.8"/>
      </g>
     </g>
     <g id="text_17">
      <!-- 2025-11-21 -->
      <g transform="translate(636.849211 506.830859) rotate(-45) scale(0.08 -0.08)">
       <use xlink:href="#SimHei-32"/>
       <use xlink:href="#SimHei-30" transform="translate(50 0)"/>
       <use xlink:href="#SimHei-32" transform="translate(100 0)"/>
       <use xlink:href="#SimHei-35" transform="translate(150 0)"/>
       <use xlink:href="#SimHei-2d" transform="translate(200 0)"/>
       <use xlink:href="#SimHei-31" transform="translate(250 0)"/>
       <use xlink:href="#SimHei-31" transform="translate(300 0)"/>
       <use xlink:href="#SimHei-2d" transform="translate(350 0)"/>
       <use xlink:href="#SimHei-32" transform="translate(400 0)"/>
       <use xlink:href="#SimHei-31" transform="translate(450 0)"/>
      </g>
     </g>
    </g>
    <g id="xtick_18">
     <g id="line2d_18">
      <g>
       <use xlink:href="#m37b0a1660e" x="685.052054" y="467.6575" style="stroke: #000000; stroke-width: 0.8"/>
      </g>
     </g>
     <g id="text_18">
      <!-- 2025-12-02 -->
      <g transform="translate(672.500908 506.830859) rotate(-45) scale(0.08 -0.08)">
       <use xlink:href="#SimHei-32"/>
       <use xlink:href="#SimHei-30" transform="translate(50 0)"/>
       <use xlink:href="#SimHei-32" transform="translate(100 0)"/>
       <use xlink:href="#SimHei-35" transform="translate(150 0)"/>
       <use xlink:href="#SimHei-2d" transform="translate(200 0)"/>
       <use xlink:href="#SimHei-31" transform="translate(250 0)"/>
       <use xlink:href="#SimHei-32" transform="translate(300 0)"/>
       <use xlink:href="#SimHei-2d" transform="translate(350 0)"/>
       <use xlink:href="#SimHei-30" transform="translate(400 0)"/>
       <use xlink:href="#SimHei-32" transform="translate(450 0)"/>
      </g>
     </g>
    </g>
    <g id="xtick_19">
     <g id="line2d_19">
      <g>
       <use xlink:href="#m37b0a1660e" x="720.703751" y="467.6575" style="stroke: #000000; stroke-width: 0.8"/>
      </g>
     </g>
     <g id="text_19">
      <!-- 2025-12-12 -->
      <g transform="translate(708.152606 506.830859) rotate(-45) scale(0.08 -0.08)">
       <use xlink:href="#SimHei-32"/>
       <use xlink:href="#SimHei-30" transform="translate(50 0)"/>
       <use xlink:href="#SimHei-32" transform="translate(100 0)"/>
       <use xlink:href="#SimHei-35" transform="translate(150 0)"/>
       <use xlink:href="#SimHei-2d" transform="translate(200 0)"/>
       <use xlink:href="#SimHei-31" transform="translate(250 0)"/>
       <use xlink:href="#SimHei-32" transform="translate(300 0)"/>
       <use xlink:href="#SimHei-2d" transform="translate(350 0)"/>
       <use xlink:href="#SimHei-31" transform="translate(400 0)"/>
       <use xlink:href="#SimHei-32" transform="translate(450 0)"/>
      </g>
     </g>
    </g>
    <g id="xtick_20">
     <g id="line2d_20">
      <g>
       <use xlink:href="#m37b0a1660e" x="756.355449" y="467.6575" style="stroke: #000000; stroke-width: 0.8"/>
      </g>
     </g>
     <g id="text_20">
      <!-- 2025-12-19 -->
      <g transform="translate(743.804304 506.830859) rotate(-45) scale(0.08 -0.08)">
       <use xlink:href="#SimHei-32"/>
       <use xlink:href="#SimHei-30" transform="translate(50 0)"/>
       <use xlink:href="#SimHei-32" transform="translate(100 0)"/>
       <use xlink:href="#SimHei-35" transform="translate(150 0)"/>
       <use xlink:href="#SimHei-2d" transform="translate(200 0)"/>
       <use xlink:href="#SimHei-31" transform="translate(250 0)"/>
       <use xlink:href="#SimHei-32" transform="translate(300 0)"/>
       <use xlink:href="#SimHei-2d" transform="translate(350 0)"/>
       <use xlink:href="#SimHei-31" transform="translate(400 0)"/>
       <use xlink:href="#SimHei-39" transform="translate(450 0)"/>
      </g>
     </g>
    </g>
   </g>
   <g id="matplotlib.axis_2">
    <g id="ytick_1">
     <g id="line2d_21">
      <defs>
       <path id="m5fc21ac0d2" d="M 0 0 
L -3.5 0 
" style="stroke: #000000; stroke-width: 0.8"/>
      </defs>
      <g>
       <use xlink:href="#m5fc21ac0d2" x="41.325" y="449.066372" style="stroke: #000000; stroke-width: 0.8"/>
      </g>
     </g>
     <g id="text_21">
      <!-- 40 -->
      <g transform="translate(24.325 452.503872) scale(0.1 -0.1)">
       <defs>
        <path id="SimHei-34" d="M 2000 1100 
L 75 1100 
L 75 1525 
L 2100 4450 
L 2475 4450 
L 2475 1525 
L 3075 1525 
L 3075 1100 
L 2475 1100 
L 2475 150 
L 2000 150 
L 2000 1100 
z
M 2000 1525 
L 2000 3500 
L 600 1525 
L 2000 1525 
z
" transform="scale(0.015625)"/>
       </defs>
       <use xlink:href="#SimHei-34"/>
       <use xlink:href="#SimHei-30" transform="translate(50 0)"/>
      </g>
     </g>
    </g>
    <g id="ytick_2">
     <g id="line2d_22">
      <g>
       <use xlink:href="#m5fc21ac0d2" x="41.325" y="390.960016" style="stroke: #000000; stroke-width: 0.8"/>
      </g>
     </g>
     <g id="text_22">
      <!-- 50 -->
      <g transform="translate(24.325 394.397516) scale(0.1 -0.1)">
       <use xlink:href="#SimHei-35"/>
       <use xlink:href="#SimHei-30" transform="translate(50 0)"/>
      </g>
     </g>
    </g>
    <g id="ytick_3">
     <g id="line2d_23">
      <g>
       <use xlink:href="#m5fc21ac0d2" x="41.325" y="332.853661" style="stroke: #000000; stroke-width: 0.8"/>
      </g>
     </g>
     <g id="text_23">
      <!-- 60 -->
      <g transform="translate(24.325 336.291161) scale(0.1 -0.1)">
       <use xlink:href="#SimHei-36"/>
       <use xlink:href="#SimHei-30" transform="translate(50 0)"/>
      </g>
     </g>
    </g>
    <g id="ytick_4">
     <g id="line2d_24">
      <g>
       <use xlink:href="#m5fc21ac0d2" x="41.325" y="274.747305" style="stroke: #000000; stroke-width: 0.8"/>
      </g>
     </g>
     <g id="text_24">
      <!-- 70 -->
      <g transform="translate(24.325 278.184805) scale(0.1 -0.1)">
       <use xlink:href="#SimHei-37"/>
       <use xlink:href="#SimHei-30" transform="translate(50 0)"/>
      </g>
     </g>
    </g>
    <g id="ytick_5">
     <g id="line2d_25">
      <g>
       <use xlink:href="#m5fc21ac0d2" x="41.325" y="216.64095" style="stroke: #000000; stroke-width: 0.8"/>
      </g>
     </g>
     <g id="text_25">
      <!-- 80 -->
      <g transform="translate(24.325 220.07845) scale(0.1 -0.1)">
       <use xlink:href="#SimHei-38"/>
       <use xlink:href="#SimHei-30" transform="translate(50 0)"/>
      </g>
     </g>
    </g>
    <g id="ytick_6">
     <g id="line2d_26">
      <g>
       <use xlink:href="#m5fc21ac0d2" x="41.325" y="158.534595" style="stroke: #000000; stroke-width: 0.8"/>
      </g>
     </g>
     <g id="text_26">
      <!-- 90 -->
      <g transform="translate(24.325 161.972095) scale(0.1 -0.1)">
       <use xlink:href="#SimHei-39"/>
       <use xlink:href="#SimHei-30" transform="translate(50 0)"/>
      </g>
     </g>
    </g>
    <g id="ytick_7">
     <g id="line2d_27">
      <g>
       <use xlink:href="#m5fc21ac0d2" x="41.325" y="100.428239" style="stroke: #000000; stroke-width: 0.8"/>
      </g>
     </g>
     <g id="text_27">
      <!-- 100 -->
      <g transform="translate(19.325 103.865739) scale(0.1 -0.1)">
       <use xlink:href="#SimHei-31"/>
       <use xlink:href="#SimHei-30" transform="translate(50 0)"/>
       <use xlink:href="#SimHei-30" transform="translate(100 0)"/>
      </g>
     </g>
    </g>
    <g id="ytick_8">
     <g id="line2d_28">
      <g>
       <use xlink:href="#m5fc21ac0d2" x="41.325" y="42.321884" style="stroke: #000000; stroke-width: 0.8"/>
      </g>
     </g>
     <g id="text_28">
      <!-- 110 -->
      <g transform="translate(19.325 45.759384) scale(0.1 -0.1)">
       <use xlink:href="#SimHei-31"/>
       <use xlink:href="#SimHei-31" transform="translate(50 0)"/>
       <use xlink:href="#SimHei-30" transform="translate(100 0)"/>
      </g>
     </g>
    </g>
    <g id="text_29">
     <!-- Price -->
     <g transform="translate(14.075 258.3975) rotate(-90) scale(0.1 -0.1)">
      <defs>
       <path id="SimHei-50" d="M 2950 3100 
Q 2950 2500 2600 2150 
Q 2250 1800 1625 1800 
L 900 1800 
L 900 125 
L 325 125 
L 325 4400 
L 1625 4400 
Q 2250 4400 2600 4050 
Q 2950 3700 2950 3100 
z
M 2375 3100 
Q 2375 3575 2150 3750 
Q 1925 3925 1475 3925 
L 900 3925 
L 900 2275 
L 1475 2275 
Q 1925 2275 2150 2450 
Q 2375 2625 2375 3100 
z
" transform="scale(0.015625)"/>
       <path id="SimHei-72" d="M 2500 2425 
Q 2025 2500 1700 2287 
Q 1375 2075 1150 1550 
L 1150 125 
L 650 125 
L 650 2925 
L 1150 2925 
L 1150 2200 
Q 1375 2600 1712 2787 
Q 2050 2975 2500 2975 
L 2500 2425 
z
" transform="scale(0.015625)"/>
       <path id="SimHei-69" d="M 1800 3725 
L 1300 3725 
L 1300 4375 
L 1800 4375 
L 1800 3725 
z
M 1800 125 
L 1300 125 
L 1300 2925 
L 1800 2925 
L 1800 125 
z
" transform="scale(0.015625)"/>
       <path id="SimHei-63" d="M 2850 1250 
Q 2850 725 2487 400 
Q 2125 75 1575 75 
Q 1025 75 625 462 
Q 225 850 225 1525 
Q 225 2200 625 2587 
Q 1025 2975 1575 2975 
Q 2125 2975 2450 2687 
Q 2775 2400 2775 2000 
L 2225 2000 
Q 2200 2300 2012 2412 
Q 1825 2525 1575 2525 
Q 1275 2525 1025 2287 
Q 775 2050 775 1525 
Q 775 1000 1025 762 
Q 1275 525 1575 525 
Q 1900 525 2100 700 
Q 2300 875 2300 1250 
L 2850 1250 
z
" transform="scale(0.015625)"/>
       <path id="SimHei-65" d="M 2850 1075 
Q 2800 625 2450 350 
Q 2100 75 1625 75 
Q 1025 75 637 462 
Q 250 850 250 1525 
Q 250 2200 637 2587 
Q 1025 2975 1625 2975 
Q 2150 2975 2487 2637 
Q 2825 2300 2825 1525 
L 800 1525 
Q 800 975 1037 750 
Q 1275 525 1625 525 
Q 1900 525 2075 662 
Q 2250 800 2300 1075 
L 2850 1075 
z
M 2250 1925 
Q 2200 2275 2025 2412 
Q 1850 2550 1575 2550 
Q 1325 2550 1125 2412 
Q 925 2275 825 1925 
L 2250 1925 
z
" transform="scale(0.015625)"/>
      </defs>
      <use xlink:href="#SimHei-50"/>
      <use xlink:href="#SimHei-72" transform="translate(50 0)"/>
      <use xlink:href="#SimHei-69" transform="translate(100 0)"/>
      <use xlink:href="#SimHei-63" transform="translate(150 0)"/>
      <use xlink:href="#SimHei-65" transform="translate(200 0)"/>
     </g>
    </g>
   </g>
   <g id="line2d_29">
    <path d="M 128.88557 447.4975 
L 157.406928 410.425645 
" clip-path="url(#pe5e460b42e)" style="fill: none; stroke: #800080; stroke-opacity: 0.8; stroke-width: 1.5; stroke-linecap: square"/>
   </g>
   <g id="line2d_30">
    <path d="M 235.840663 433.319549 
L 264.362021 416.003855 
" clip-path="url(#pe5e460b42e)" style="fill: none; stroke: #800080; stroke-opacity: 0.8; stroke-width: 1.5; stroke-linecap: square"/>
   </g>
   <g id="line2d_31">
    <path d="M 292.883379 430.937189 
L 471.141867 55.918771 
" clip-path="url(#pe5e460b42e)" style="fill: none; stroke: #800080; stroke-opacity: 0.8; stroke-width: 1.5; stroke-linecap: square"/>
   </g>
   <g id="line2d_32">
    <path d="M 528.184584 210.714102 
L 570.966621 136.570392 
" clip-path="url(#pe5e460b42e)" style="fill: none; stroke: #800080; stroke-opacity: 0.8; stroke-width: 1.5; stroke-linecap: square"/>
   </g>
   <g id="line2d_33">
    <path d="M 656.530696 257.722143 
L 720.703751 129.481417 
" clip-path="url(#pe5e460b42e)" style="fill: none; stroke: #800080; stroke-opacity: 0.8; stroke-width: 1.5; stroke-linecap: square"/>
   </g>
   <g id="patch_203">
    <path d="M 41.325 467.6575 
L 41.325 24.1375 
" style="fill: none; stroke: #000000; stroke-width: 0.8; stroke-linejoin: miter; stroke-linecap: square"/>
   </g>
   <g id="patch_204">
    <path d="M 822.525 467.6575 
L 822.525 24.1375 
" style="fill: none; stroke: #000000; stroke-width: 0.8; stroke-linejoin: miter; stroke-linecap: square"/>
   </g>
   <g id="patch_205">
    <path d="M 41.325 467.6575 
L 822.525 467.6575 
" style="fill: none; stroke: #000000; stroke-width: 0.8; stroke-linejoin: miter; stroke-linecap: square"/>
   </g>
   <g id="patch_206">
    <path d="M 41.325 24.1375 
L 822.525 24.1375 
" style="fill: none; stroke: #000000; stroke-width: 0.8; stroke-linejoin: miter; stroke-linecap: square"/>
   </g>
   <g id="text_30">
    <!-- T 44.85 -->
    <g transform="translate(88.242634 420.624182) scale(0.08 -0.08)">
     <defs>
      <path id="SimHei-54" d="M 2850 3925 
L 1850 3925 
L 1850 125 
L 1275 125 
L 1275 3925 
L 275 3925 
L 275 4400 
L 2850 4400 
L 2850 3925 
z
" transform="scale(0.015625)"/>
      <path id="SimHei-20" transform="scale(0.015625)"/>
      <path id="SimHei-2e" d="M 1075 125 
L 500 125 
L 500 675 
L 1075 675 
L 1075 125 
z
" transform="scale(0.015625)"/>
     </defs>
     <use xlink:href="#SimHei-54"/>
     <use xlink:href="#SimHei-20" transform="translate(50 0)"/>
     <use xlink:href="#SimHei-34" transform="translate(100 0)"/>
     <use xlink:href="#SimHei-34" transform="translate(150 0)"/>
     <use xlink:href="#SimHei-2e" transform="translate(200 0)"/>
     <use xlink:href="#SimHei-38" transform="translate(250 0)"/>
     <use xlink:href="#SimHei-35" transform="translate(300 0)"/>
    </g>
   </g>
   <g id="text_31">
    <!-- B 40.27 -->
    <g style="fill: #0000ff" transform="translate(131.024671 447.965489) scale(0.08 -0.08)">
     <defs>
      <path id="SimHei-42" d="M 2950 1400 
Q 2950 675 2550 400 
Q 2150 125 1525 125 
L 275 125 
L 275 4400 
L 1575 4400 
Q 2200 4400 2512 4075 
Q 2825 3750 2825 3300 
Q 2825 2850 2612 2637 
Q 2400 2425 2175 2350 
Q 2475 2275 2712 2037 
Q 2950 1800 2950 1400 
z
M 2250 3300 
Q 2250 3625 2062 3775 
Q 1875 3925 1600 3925 
L 850 3925 
L 850 2600 
L 1575 2600 
Q 1850 2600 2050 2762 
Q 2250 2925 2250 3300 
z
M 2350 1400 
Q 2350 1800 2087 1962 
Q 1825 2125 1500 2125 
L 850 2125 
L 850 600 
L 1425 600 
Q 1875 600 2112 775 
Q 2350 950 2350 1400 
z
" transform="scale(0.015625)"/>
     </defs>
     <use xlink:href="#SimHei-42"/>
     <use xlink:href="#SimHei-20" transform="translate(50 0)"/>
     <use xlink:href="#SimHei-34" transform="translate(100 0)"/>
     <use xlink:href="#SimHei-30" transform="translate(150 0)"/>
     <use xlink:href="#SimHei-2e" transform="translate(200 0)"/>
     <use xlink:href="#SimHei-32" transform="translate(250 0)"/>
     <use xlink:href="#SimHei-37" transform="translate(300 0)"/>
    </g>
   </g>
   <g id="text_32">
    <!-- T 46.65 -->
    <g transform="translate(159.54603 410.154579) scale(0.08 -0.08)">
     <use xlink:href="#SimHei-54"/>
     <use xlink:href="#SimHei-20" transform="translate(50 0)"/>
     <use xlink:href="#SimHei-34" transform="translate(100 0)"/>
     <use xlink:href="#SimHei-36" transform="translate(150 0)"/>
     <use xlink:href="#SimHei-2e" transform="translate(200 0)"/>
     <use xlink:href="#SimHei-36" transform="translate(250 0)"/>
     <use xlink:href="#SimHei-35" transform="translate(300 0)"/>
    </g>
   </g>
   <g id="text_33">
    <!-- Bx -->
    <g style="fill: #808080" transform="translate(166.676369 424.01556) scale(0.08 -0.08)">
     <defs>
      <path id="SimHei-78" d="M 2875 125 
L 2275 125 
L 1550 1200 
L 825 125 
L 225 125 
L 1250 1550 
L 300 2925 
L 900 2925 
L 1550 1875 
L 2200 2925 
L 2800 2925 
L 1850 1550 
L 2875 125 
z
" transform="scale(0.015625)"/>
     </defs>
     <use xlink:href="#SimHei-42"/>
     <use xlink:href="#SimHei-78" transform="translate(50 0)"/>
    </g>
   </g>
   <g id="text_34">
    <!-- Bx -->
    <g style="fill: #808080" transform="translate(209.458406 431.438298) scale(0.08 -0.08)">
     <use xlink:href="#SimHei-42"/>
     <use xlink:href="#SimHei-78" transform="translate(50 0)"/>
    </g>
   </g>
   <g id="text_35">
    <!-- Tx -->
    <g style="fill: #808080" transform="translate(230.849425 419.751715) scale(0.08 -0.08)">
     <use xlink:href="#SimHei-54"/>
     <use xlink:href="#SimHei-78" transform="translate(50 0)"/>
    </g>
   </g>
   <g id="text_36">
    <!-- B 42.71 -->
    <g style="fill: #0000ff" transform="translate(237.979765 433.815894) scale(0.08 -0.08)">
     <use xlink:href="#SimHei-42"/>
     <use xlink:href="#SimHei-20" transform="translate(50 0)"/>
     <use xlink:href="#SimHei-34" transform="translate(100 0)"/>
     <use xlink:href="#SimHei-32" transform="translate(150 0)"/>
     <use xlink:href="#SimHei-2e" transform="translate(200 0)"/>
     <use xlink:href="#SimHei-37" transform="translate(250 0)"/>
     <use xlink:href="#SimHei-31" transform="translate(300 0)"/>
    </g>
   </g>
   <g id="text_37">
    <!-- T 45.69 -->
    <g transform="translate(266.501123 415.738367) scale(0.08 -0.08)">
     <use xlink:href="#SimHei-54"/>
     <use xlink:href="#SimHei-20" transform="translate(50 0)"/>
     <use xlink:href="#SimHei-34" transform="translate(100 0)"/>
     <use xlink:href="#SimHei-35" transform="translate(150 0)"/>
     <use xlink:href="#SimHei-2e" transform="translate(200 0)"/>
     <use xlink:href="#SimHei-36" transform="translate(250 0)"/>
     <use xlink:href="#SimHei-39" transform="translate(300 0)"/>
    </g>
   </g>
   <g id="text_38">
    <!-- B 43.12 -->
    <g style="fill: #0000ff" transform="translate(295.022481 431.438298) scale(0.08 -0.08)">
     <use xlink:href="#SimHei-42"/>
     <use xlink:href="#SimHei-20" transform="translate(50 0)"/>
     <use xlink:href="#SimHei-34" transform="translate(100 0)"/>
     <use xlink:href="#SimHei-33" transform="translate(150 0)"/>
     <use xlink:href="#SimHei-2e" transform="translate(200 0)"/>
     <use xlink:href="#SimHei-31" transform="translate(250 0)"/>
     <use xlink:href="#SimHei-32" transform="translate(300 0)"/>
    </g>
   </g>
   <g id="text_39">
    <!-- Tx -->
    <g style="fill: #808080" transform="translate(316.413499 418.530262) scale(0.08 -0.08)">
     <use xlink:href="#SimHei-54"/>
     <use xlink:href="#SimHei-78" transform="translate(50 0)"/>
    </g>
   </g>
   <g id="text_40">
    <!-- Tx -->
    <g style="fill: #808080" transform="translate(337.804518 412.888309) scale(0.08 -0.08)">
     <use xlink:href="#SimHei-54"/>
     <use xlink:href="#SimHei-78" transform="translate(50 0)"/>
    </g>
   </g>
   <g id="text_41">
    <!-- Bx -->
    <g style="fill: #808080" transform="translate(344.934858 422.739777) scale(0.08 -0.08)">
     <use xlink:href="#SimHei-42"/>
     <use xlink:href="#SimHei-78" transform="translate(50 0)"/>
    </g>
   </g>
   <g id="text_42">
    <!-- Tx -->
    <g style="fill: #808080" transform="translate(359.195537 365.135286) scale(0.08 -0.08)">
     <use xlink:href="#SimHei-54"/>
     <use xlink:href="#SimHei-78" transform="translate(50 0)"/>
    </g>
   </g>
   <g id="text_43">
    <!-- Tx -->
    <g style="fill: #808080" transform="translate(387.716895 312.089297) scale(0.08 -0.08)">
     <use xlink:href="#SimHei-54"/>
     <use xlink:href="#SimHei-78" transform="translate(50 0)"/>
    </g>
   </g>
   <g id="text_44">
    <!-- Bx -->
    <g style="fill: #808080" transform="translate(416.238253 340.857695) scale(0.08 -0.08)">
     <use xlink:href="#SimHei-42"/>
     <use xlink:href="#SimHei-78" transform="translate(50 0)"/>
    </g>
   </g>
   <g id="text_45">
    <!-- Tx -->
    <g style="fill: #808080" transform="translate(451.889951 102.755399) scale(0.08 -0.08)">
     <use xlink:href="#SimHei-54"/>
     <use xlink:href="#SimHei-78" transform="translate(50 0)"/>
    </g>
   </g>
   <g id="text_46">
    <!-- T 107.66 -->
    <g transform="translate(473.280969 55.293198) scale(0.08 -0.08)">
     <use xlink:href="#SimHei-54"/>
     <use xlink:href="#SimHei-20" transform="translate(50 0)"/>
     <use xlink:href="#SimHei-31" transform="translate(100 0)"/>
     <use xlink:href="#SimHei-30" transform="translate(150 0)"/>
     <use xlink:href="#SimHei-37" transform="translate(200 0)"/>
     <use xlink:href="#SimHei-2e" transform="translate(250 0)"/>
     <use xlink:href="#SimHei-36" transform="translate(300 0)"/>
     <use xlink:href="#SimHei-36" transform="translate(350 0)"/>
    </g>
   </g>
   <g id="text_47">
    <!-- Bx -->
    <g style="fill: #808080" transform="translate(508.932667 199.477727) scale(0.08 -0.08)">
     <use xlink:href="#SimHei-42"/>
     <use xlink:href="#SimHei-78" transform="translate(50 0)"/>
    </g>
   </g>
   <g id="text_48">
    <!-- Tx -->
    <g style="fill: #808080" transform="translate(516.063007 172.843575) scale(0.08 -0.08)">
     <use xlink:href="#SimHei-54"/>
     <use xlink:href="#SimHei-78" transform="translate(50 0)"/>
    </g>
   </g>
   <g id="text_49">
    <!-- B 81.02 -->
    <g style="fill: #0000ff" transform="translate(530.323686 211.655657) scale(0.08 -0.08)">
     <use xlink:href="#SimHei-42"/>
     <use xlink:href="#SimHei-20" transform="translate(50 0)"/>
     <use xlink:href="#SimHei-38" transform="translate(100 0)"/>
     <use xlink:href="#SimHei-31" transform="translate(150 0)"/>
     <use xlink:href="#SimHei-2e" transform="translate(200 0)"/>
     <use xlink:href="#SimHei-30" transform="translate(250 0)"/>
     <use xlink:href="#SimHei-32" transform="translate(300 0)"/>
    </g>
   </g>
   <g id="text_50">
    <!-- Tx -->
    <g style="fill: #808080" transform="translate(558.845044 141.202108) scale(0.08 -0.08)">
     <use xlink:href="#SimHei-54"/>
     <use xlink:href="#SimHei-78" transform="translate(50 0)"/>
    </g>
   </g>
   <g id="text_51">
    <!-- Bx -->
    <g style="fill: #808080" transform="translate(565.975383 177.847404) scale(0.08 -0.08)">
     <use xlink:href="#SimHei-42"/>
     <use xlink:href="#SimHei-78" transform="translate(50 0)"/>
    </g>
   </g>
   <g id="text_52">
    <!-- T 93.78 -->
    <g transform="translate(573.105723 136.025471) scale(0.08 -0.08)">
     <use xlink:href="#SimHei-54"/>
     <use xlink:href="#SimHei-20" transform="translate(50 0)"/>
     <use xlink:href="#SimHei-39" transform="translate(100 0)"/>
     <use xlink:href="#SimHei-33" transform="translate(150 0)"/>
     <use xlink:href="#SimHei-2e" transform="translate(200 0)"/>
     <use xlink:href="#SimHei-37" transform="translate(250 0)"/>
     <use xlink:href="#SimHei-38" transform="translate(300 0)"/>
    </g>
   </g>
   <g id="text_53">
    <!-- Bx -->
    <g style="fill: #808080" transform="translate(623.0181 230.212503) scale(0.08 -0.08)">
     <use xlink:href="#SimHei-42"/>
     <use xlink:href="#SimHei-78" transform="translate(50 0)"/>
    </g>
   </g>
   <g id="text_54">
    <!-- Tx -->
    <g style="fill: #808080" transform="translate(630.148439 209.312693) scale(0.08 -0.08)">
     <use xlink:href="#SimHei-54"/>
     <use xlink:href="#SimHei-78" transform="translate(50 0)"/>
    </g>
   </g>
   <g id="text_55">
    <!-- Bx -->
    <g style="fill: #808080" transform="translate(637.278779 238.737054) scale(0.08 -0.08)">
     <use xlink:href="#SimHei-42"/>
     <use xlink:href="#SimHei-78" transform="translate(50 0)"/>
    </g>
   </g>
   <g id="text_56">
    <!-- B 72.93 -->
    <g style="fill: #0000ff" transform="translate(658.669797 258.569683) scale(0.08 -0.08)">
     <use xlink:href="#SimHei-42"/>
     <use xlink:href="#SimHei-20" transform="translate(50 0)"/>
     <use xlink:href="#SimHei-37" transform="translate(100 0)"/>
     <use xlink:href="#SimHei-32" transform="translate(150 0)"/>
     <use xlink:href="#SimHei-2e" transform="translate(200 0)"/>
     <use xlink:href="#SimHei-39" transform="translate(250 0)"/>
     <use xlink:href="#SimHei-33" transform="translate(300 0)"/>
    </g>
   </g>
   <g id="text_57">
    <!-- T 95.00 -->
    <g transform="translate(722.842853 128.929407) scale(0.08 -0.08)">
     <use xlink:href="#SimHei-54"/>
     <use xlink:href="#SimHei-20" transform="translate(50 0)"/>
     <use xlink:href="#SimHei-39" transform="translate(100 0)"/>
     <use xlink:href="#SimHei-35" transform="translate(150 0)"/>
     <use xlink:href="#SimHei-2e" transform="translate(200 0)"/>
     <use xlink:href="#SimHei-30" transform="translate(250 0)"/>
     <use xlink:href="#SimHei-30" transform="translate(300 0)"/>
    </g>
   </g>
   <g id="text_58">
    <!-- Bx -->
    <g style="fill: #808080" transform="translate(737.103532 182.776566) scale(0.08 -0.08)">
     <use xlink:href="#SimHei-42"/>
     <use xlink:href="#SimHei-78" transform="translate(50 0)"/>
    </g>
   </g>
   <g id="text_59">
    <!-- B 86.80 -->
    <g style="fill: #0000ff" transform="translate(758.494551 178.137355) scale(0.08 -0.08)">
     <use xlink:href="#SimHei-42"/>
     <use xlink:href="#SimHei-20" transform="translate(50 0)"/>
     <use xlink:href="#SimHei-38" transform="translate(100 0)"/>
     <use xlink:href="#SimHei-36" transform="translate(150 0)"/>
     <use xlink:href="#SimHei-2e" transform="translate(200 0)"/>
     <use xlink:href="#SimHei-38" transform="translate(250 0)"/>
     <use xlink:href="#SimHei-30" transform="translate(300 0)"/>
    </g>
   </g>
   <g id="text_60">
    <!-- Stroke Identification (Bill Williams / Chan Theory) -->
    <g transform="translate(253.425 18.1375) scale(0.14 -0.14)">
     <defs>
      <path id="SimHei-53" d="M 2900 1325 
Q 2900 750 2537 412 
Q 2175 75 1550 75 
Q 925 75 575 425 
Q 225 775 225 1300 
L 225 1475 
L 800 1475 
L 800 1325 
Q 800 950 1025 750 
Q 1250 550 1550 550 
Q 1950 550 2137 762 
Q 2325 975 2325 1275 
Q 2325 1525 2100 1737 
Q 1875 1950 1450 2125 
Q 850 2350 587 2625 
Q 325 2900 325 3275 
Q 325 3800 687 4125 
Q 1050 4450 1550 4450 
Q 2200 4450 2487 4062 
Q 2775 3675 2775 3225 
L 2200 3225 
Q 2225 3500 2050 3725 
Q 1875 3950 1550 3950 
Q 1250 3950 1075 3787 
Q 900 3625 900 3350 
Q 900 3125 1037 2962 
Q 1175 2800 1750 2575 
Q 2300 2350 2600 2037 
Q 2900 1725 2900 1325 
z
" transform="scale(0.015625)"/>
      <path id="SimHei-74" d="M 2750 200 
Q 2625 150 2462 112 
Q 2300 75 2025 75 
Q 1575 75 1300 325 
Q 1025 575 1025 1025 
L 1025 2525 
L 175 2525 
L 175 2925 
L 1025 2925 
L 1025 3900 
L 1525 3900 
L 1525 2925 
L 2550 2925 
L 2550 2525 
L 1525 2525 
L 1525 1000 
Q 1525 800 1625 662 
Q 1725 525 2000 525 
Q 2275 525 2450 575 
Q 2625 625 2750 700 
L 2750 200 
z
" transform="scale(0.015625)"/>
      <path id="SimHei-6f" d="M 2925 1525 
Q 2925 875 2525 475 
Q 2125 75 1575 75 
Q 1025 75 625 475 
Q 225 875 225 1525 
Q 225 2175 625 2575 
Q 1025 2975 1575 2975 
Q 2125 2975 2525 2575 
Q 2925 2175 2925 1525 
z
M 2375 1525 
Q 2375 2025 2125 2275 
Q 1875 2525 1575 2525 
Q 1275 2525 1025 2275 
Q 775 2025 775 1525 
Q 775 1025 1025 775 
Q 1275 525 1575 525 
Q 1875 525 2125 775 
Q 2375 1025 2375 1525 
z
" transform="scale(0.015625)"/>
      <path id="SimHei-6b" d="M 2925 125 
L 2350 125 
L 1450 1650 
L 875 1100 
L 875 125 
L 375 125 
L 375 4400 
L 875 4400 
L 875 1675 
L 2125 2925 
L 2750 2925 
L 1775 1975 
L 2925 125 
z
" transform="scale(0.015625)"/>
      <path id="SimHei-49" d="M 1850 125 
L 1275 125 
L 1275 4400 
L 1850 4400 
L 1850 125 
z
" transform="scale(0.015625)"/>
      <path id="SimHei-64" d="M 2750 125 
L 2250 125 
L 2250 500 
Q 2100 275 1900 175 
Q 1700 75 1425 75 
Q 925 75 575 437 
Q 225 800 225 1525 
Q 225 2250 575 2625 
Q 925 3000 1425 3000 
Q 1700 3000 1900 2887 
Q 2100 2775 2250 2550 
L 2250 4400 
L 2750 4400 
L 2750 125 
z
M 2250 1525 
Q 2250 2000 2037 2275 
Q 1825 2550 1525 2550 
Q 1150 2550 962 2275 
Q 775 2000 775 1525 
Q 775 1050 962 787 
Q 1150 525 1525 525 
Q 1825 525 2037 787 
Q 2250 1050 2250 1525 
z
" transform="scale(0.015625)"/>
      <path id="SimHei-6e" d="M 2800 125 
L 2300 125 
L 2300 1925 
Q 2300 2225 2150 2400 
Q 2000 2575 1750 2575 
Q 1425 2575 1137 2237 
Q 850 1900 850 1400 
L 850 125 
L 350 125 
L 350 2925 
L 850 2925 
L 850 2400 
Q 1050 2675 1287 2825 
Q 1525 2975 1900 2975 
Q 2350 2975 2575 2725 
Q 2800 2475 2800 2100 
L 2800 125 
z
" transform="scale(0.015625)"/>
      <path id="SimHei-66" d="M 2850 3825 
Q 2725 3900 2550 3950 
Q 2375 4000 2100 4000 
Q 1825 4000 1725 3862 
Q 1625 3725 1625 3525 
L 1625 2925 
L 2650 2925 
L 2650 2525 
L 1625 2525 
L 1625 125 
L 1125 125 
L 1125 2525 
L 275 2525 
L 275 2925 
L 1125 2925 
L 1125 3500 
Q 1125 3950 1400 4200 
Q 1675 4450 2125 4450 
Q 2400 4450 2562 4412 
Q 2725 4375 2850 4325 
L 2850 3825 
z
" transform="scale(0.015625)"/>
      <path id="SimHei-61" d="M 2875 125 
L 2275 125 
Q 2225 175 2200 262 
Q 2175 350 2175 475 
Q 2000 275 1750 175 
Q 1500 75 1225 75 
Q 825 75 550 275 
Q 275 475 275 850 
Q 275 1225 525 1450 
Q 775 1675 1300 1750 
Q 1650 1800 1912 1875 
Q 2175 1950 2175 2075 
Q 2175 2225 2062 2375 
Q 1950 2525 1575 2525 
Q 1275 2525 1137 2412 
Q 1000 2300 950 2100 
L 400 2100 
Q 450 2500 762 2737 
Q 1075 2975 1575 2975 
Q 2125 2975 2400 2725 
Q 2675 2475 2675 2025 
L 2675 650 
Q 2675 500 2725 375 
Q 2775 250 2875 125 
z
M 2175 1050 
L 2175 1550 
Q 2025 1500 1887 1462 
Q 1750 1425 1425 1375 
Q 1050 1325 937 1200 
Q 825 1075 825 900 
Q 825 750 937 637 
Q 1050 525 1275 525 
Q 1500 525 1762 650 
Q 2025 775 2175 1050 
z
" transform="scale(0.015625)"/>
      <path id="SimHei-28" d="M 2975 -200 
L 2700 -475 
Q 2075 125 1762 775 
Q 1450 1425 1450 2250 
Q 1450 3075 1762 3725 
Q 2075 4375 2700 5000 
L 2975 4725 
Q 2400 4175 2112 3587 
Q 1825 3000 1825 2250 
Q 1825 1500 2112 912 
Q 2400 325 2975 -200 
z
" transform="scale(0.015625)"/>
      <path id="SimHei-6c" d="M 1825 125 
L 1325 125 
L 1325 4400 
L 1825 4400 
L 1825 125 
z
" transform="scale(0.015625)"/>
      <path id="SimHei-57" d="M 3075 4400 
L 2525 75 
L 2025 75 
L 1575 3275 
L 1525 3275 
L 1075 75 
L 575 75 
L 25 4400 
L 575 4400 
L 850 1675 
L 900 1675 
L 1275 4400 
L 1825 4400 
L 2200 1675 
L 2250 1675 
L 2525 4400 
L 3075 4400 
z
" transform="scale(0.015625)"/>
      <path id="SimHei-6d" d="M 3050 125 
L 2550 125 
L 2550 2150 
Q 2550 2300 2500 2400 
Q 2450 2500 2300 2500 
Q 2125 2500 1975 2312 
Q 1825 2125 1825 1825 
L 1825 125 
L 1325 125 
L 1325 2150 
Q 1325 2300 1275 2400 
Q 1225 2500 1075 2500 
Q 900 2500 750 2312 
Q 600 2125 600 1825 
L 600 125 
L 100 125 
L 100 2925 
L 600 2925 
L 600 2550 
Q 725 2750 900 2862 
Q 1075 2975 1275 2975 
Q 1475 2975 1612 2862 
Q 1750 2750 1800 2550 
Q 1925 2750 2087 2862 
Q 2250 2975 2450 2975 
Q 2750 2975 2900 2812 
Q 3050 2650 3050 2350 
L 3050 125 
z
" transform="scale(0.015625)"/>
      <path id="SimHei-73" d="M 2750 900 
Q 2750 500 2437 287 
Q 2125 75 1650 75 
Q 1050 75 725 312 
Q 400 550 400 1000 
L 900 1000 
Q 900 700 1112 600 
Q 1325 500 1625 500 
Q 1925 500 2075 612 
Q 2225 725 2225 900 
Q 2225 1025 2100 1150 
Q 1975 1275 1475 1350 
Q 900 1425 687 1637 
Q 475 1850 475 2200 
Q 475 2500 762 2737 
Q 1050 2975 1600 2975 
Q 2100 2975 2387 2750 
Q 2675 2525 2675 2150 
L 2175 2150 
Q 2175 2375 2012 2462 
Q 1850 2550 1600 2550 
Q 1275 2550 1137 2437 
Q 1000 2325 1000 2175 
Q 1000 2000 1125 1900 
Q 1250 1800 1650 1750 
Q 2300 1650 2525 1437 
Q 2750 1225 2750 900 
z
" transform="scale(0.015625)"/>
      <path id="SimHei-2f" d="M 3000 4550 
L 350 -175 
L 100 -25 
L 2750 4700 
L 3000 4550 
z
" transform="scale(0.015625)"/>
      <path id="SimHei-43" d="M 2975 1825 
Q 2950 875 2575 475 
Q 2200 75 1675 75 
Q 1075 75 650 562 
Q 225 1050 225 2125 
Q 225 3300 637 3875 
Q 1050 4450 1700 4450 
Q 2250 4450 2612 4037 
Q 2975 3625 2950 2875 
L 2400 2875 
Q 2400 3425 2225 3700 
Q 2050 3975 1700 3975 
Q 1300 3975 1062 3562 
Q 825 3150 825 2175 
Q 825 1275 1062 912 
Q 1300 550 1675 550 
Q 1950 550 2175 812 
Q 2400 1075 2400 1825 
L 2975 1825 
z
" transform="scale(0.015625)"/>
      <path id="SimHei-68" d="M 2800 125 
L 2300 125 
L 2300 1925 
Q 2300 2225 2150 2400 
Q 2000 2575 1750 2575 
Q 1425 2575 1137 2237 
Q 850 1900 850 1400 
L 850 125 
L 350 125 
L 350 4400 
L 850 4400 
L 850 2400 
Q 1050 2675 1287 2825 
Q 1525 2975 1900 2975 
Q 2350 2975 2575 2725 
Q 2800 2475 2800 2100 
L 2800 125 
z
" transform="scale(0.015625)"/>
      <path id="SimHei-79" d="M 2900 2925 
L 1750 -100 
Q 1650 -450 1450 -625 
Q 1250 -800 950 -800 
Q 825 -800 712 -787 
Q 600 -775 500 -725 
L 500 -225 
Q 600 -275 700 -300 
Q 800 -325 875 -325 
Q 1075 -325 1150 -262 
Q 1225 -200 1300 25 
L 200 2925 
L 750 2925 
L 1550 725 
L 1575 725 
L 2350 2925 
L 2900 2925 
z
" transform="scale(0.015625)"/>
      <path id="SimHei-29" d="M 1675 2250 
Q 1675 1425 1362 775 
Q 1050 125 425 -475 
L 150 -200 
Q 725 325 1012 912 
Q 1300 1500 1300 2250 
Q 1300 3000 1012 3587 
Q 725 4175 150 4725 
L 425 5000 
Q 1050 4375 1362 3725 
Q 1675 3075 1675 2250 
z
" transform="scale(0.015625)"/>
     </defs>
     <use xlink:href="#SimHei-53"/>
     <use xlink:href="#SimHei-74" transform="translate(50 0)"/>
     <use xlink:href="#SimHei-72" transform="translate(100 0)"/>
     <use xlink:href="#SimHei-6f" transform="translate(150 0)"/>
     <use xlink:href="#SimHei-6b" transform="translate(200 0)"/>
     <use xlink:href="#SimHei-65" transform="translate(250 0)"/>
     <use xlink:href="#SimHei-20" transform="translate(300 0)"/>
     <use xlink:href="#SimHei-49" transform="translate(350 0)"/>
     <use xlink:href="#SimHei-64" transform="translate(400 0)"/>
     <use xlink:href="#SimHei-65" transform="translate(450 0)"/>
     <use xlink:href="#SimHei-6e" transform="translate(500 0)"/>
     <use xlink:href="#SimHei-74" transform="translate(550 0)"/>
     <use xlink:href="#SimHei-69" transform="translate(600 0)"/>
     <use xlink:href="#SimHei-66" transform="translate(650 0)"/>
     <use xlink:href="#SimHei-69" transform="translate(700 0)"/>
     <use xlink:href="#SimHei-63" transform="translate(750 0)"/>
     <use xlink:href="#SimHei-61" transform="translate(800 0)"/>
     <use xlink:href="#SimHei-74" transform="translate(850 0)"/>
     <use xlink:href="#SimHei-69" transform="translate(900 0)"/>
     <use xlink:href="#SimHei-6f" transform="translate(950 0)"/>
     <use xlink:href="#SimHei-6e" transform="translate(1000 0)"/>
     <use xlink:href="#SimHei-20" transform="translate(1050 0)"/>
     <use xlink:href="#SimHei-28" transform="translate(1100 0)"/>
     <use xlink:href="#SimHei-42" transform="translate(1150 0)"/>
     <use xlink:href="#SimHei-69" transform="translate(1200 0)"/>
     <use xlink:href="#SimHei-6c" transform="translate(1250 0)"/>
     <use xlink:href="#SimHei-6c" transform="translate(1300 0)"/>
     <use xlink:href="#SimHei-20" transform="translate(1350 0)"/>
     <use xlink:href="#SimHei-57" transform="translate(1400 0)"/>
     <use xlink:href="#SimHei-69" transform="translate(1450 0)"/>
     <use xlink:href="#SimHei-6c" transform="translate(1500 0)"/>
     <use xlink:href="#SimHei-6c" transform="translate(1550 0)"/>
     <use xlink:href="#SimHei-69" transform="translate(1600 0)"/>
     <use xlink:href="#SimHei-61" transform="translate(1650 0)"/>
     <use xlink:href="#SimHei-6d" transform="translate(1700 0)"/>
     <use xlink:href="#SimHei-73" transform="translate(1750 0)"/>
     <use xlink:href="#SimHei-20" transform="translate(1800 0)"/>
     <use xlink:href="#SimHei-2f" transform="translate(1850 0)"/>
     <use xlink:href="#SimHei-20" transform="translate(1900 0)"/>
     <use xlink:href="#SimHei-43" transform="translate(1950 0)"/>
     <use xlink:href="#SimHei-68" transform="translate(2000 0)"/>
     <use xlink:href="#SimHei-61" transform="translate(2050 0)"/>
     <use xlink:href="#SimHei-6e" transform="translate(2100 0)"/>
     <use xlink:href="#SimHei-20" transform="translate(2150 0)"/>
     <use xlink:href="#SimHei-54" transform="translate(2200 0)"/>
     <use xlink:href="#SimHei-68" transform="translate(2250 0)"/>
     <use xlink:href="#SimHei-65" transform="translate(2300 0)"/>
     <use xlink:href="#SimHei-6f" transform="translate(2350 0)"/>
     <use xlink:href="#SimHei-72" transform="translate(2400 0)"/>
     <use xlink:href="#SimHei-79" transform="translate(2450 0)"/>
     <use xlink:href="#SimHei-29" transform="translate(2500 0)"/>
    </g>
   </g>
  </g>
 </g>
 <defs>
  <clipPath id="pe5e460b42e">
   <rect x="41.325" y="24.1375" width="781.2" height="443.52"/>
  </clipPath>
 </defs>
</svg>
